<?xml version="1.0" encoding="utf-8"?>
<!-- Generator: Adobe Illustrator 26.0.1, SVG Export Plug-In . SVG Version: 6.00 Build 0)  -->
<svg version="1.1" id="Layer_1" xmlns="http://www.w3.org/2000/svg" xmlns:xlink="http://www.w3.org/1999/xlink" x="0px" y="0px"
	 viewBox="0 0 1000 1100" style="enable-background:new 0 0 1000 1100;" xml:space="preserve">
<style type="text/css">
	.st0{fill:#6769AE;}
	.st1{fill:#FBBB24;}
	.st2{fill:#FABB24;}
	.st3{fill:#F9BA20;}
	.st4{fill:#6668AE;}
	.st5{fill:none;stroke:#6668AE;stroke-miterlimit:10;}
	.st6{fill:none;stroke:#6668AE;stroke-width:4;stroke-miterlimit:10;}
	.st7{fill:none;stroke:#6668AE;stroke-width:5;stroke-miterlimit:10;}
</style>
<polyline class="st0" points="42.03,61.84 81.52,76.94 146.53,0 92.74,0 "/>
<polygon class="st0" points="342.55,39.77 382.81,0 410.16,0 410.16,39.77 "/>
<polygon class="st1" points="864.42,30.48 895.19,0 1000,0 1000,31.26 "/>
<polygon class="st2" points="27.71,335.77 67.45,296.29 95.84,296.29 95.84,335.77 "/>
<polygon class="st1" points="0,1053.97 68.16,1053.97 68.16,1013.71 39.71,1013.71 "/>
<polygon class="st3" points="96.81,1083.19 329.26,1083.19 313.58,1100 113.26,1100 "/>
<polygon class="st0" points="658.68,1062.74 892.48,1062.74 855.06,1100 697.13,1100 "/>
<g>
	<path class="st4" d="M40.36,150.96c-0.26-4.92-0.64-10.03-1.16-15.34c4.68,1.52,8.37,2.56,11.05,3.11
		c2.69,0.55,5.27,0.82,7.77,0.82c2.02,0,3.97-0.28,5.87-0.84c1.68-0.47,3.16-1.1,4.45-1.87c0.94-0.64,1.74-1.35,2.38-2.13
		c0.94-1.12,1.72-2.41,2.32-3.87c0.6-1.55,1.07-3.66,1.42-6.33c0.47-3.53,0.87-9.37,1.21-17.54c0.25-6.41,0.49-13.59,0.7-21.54
		c0.17-6.67,0.25-13.7,0.25-21.09c5.12,0.09,8.41,0.13,9.87,0.13c1.72,0,5.16-0.04,10.33-0.13L95.08,92
		c-0.34,6.67-0.71,15.8-1.09,27.41c-0.26,7.96-0.69,13.4-1.29,16.32c-0.43,2.24-1.1,4.21-2,5.93c-0.82,1.55-1.83,2.92-3.03,4.13
		c-1.42,1.38-3.14,2.6-5.16,3.68c-2.62,1.42-5.42,2.47-8.38,3.16c-3.31,0.82-6.9,1.23-10.76,1.23
		C56.79,153.86,49.12,152.89,40.36,150.96z"/>
	<path class="st4" d="M122.49,64.33c4.98,0.09,8.34,0.13,10.1,0.13c2.19,0,5.45-0.04,9.78-0.13l-3.04,52.01
		c-0.04,0.6-0.06,1.25-0.06,1.93c0,5.8,0.83,10.16,2.48,13.08c1.65,2.92,4.08,5.05,7.29,6.38c3.2,1.33,6.87,2,10.99,2
		c2.62,0,5.11-0.3,7.48-0.9c1.93-0.52,3.7-1.22,5.29-2.13c1.29-0.77,2.43-1.68,3.42-2.71c1.16-1.25,2.13-2.69,2.9-4.32
		c0.82-1.59,1.42-3.39,1.81-5.41c0.56-3.05,1.08-8.36,1.55-15.92l1.37-22.43c0.3-6.53,0.54-13.73,0.72-21.59
		c4.85,0.09,8.45,0.13,10.81,0.13l9.4-0.13l-2,31.07l-1.29,24.69c-0.39,5.76-0.99,10.05-1.8,12.89c-0.69,2.36-1.65,4.56-2.9,6.57
		c-1.2,1.8-2.64,3.42-4.32,4.83c-2.15,1.85-4.66,3.44-7.54,4.77c-3.22,1.5-6.64,2.6-10.25,3.29c-4.98,0.94-10.12,1.42-15.41,1.42
		c-5.41,0-10.48-0.49-15.21-1.48c-4.04-0.86-7.75-2.19-11.12-4c-3.37-1.8-6.05-3.82-8.03-6.06c-1.59-1.8-2.86-4.06-3.8-6.77
		c-1.07-3.01-1.61-6.36-1.61-10.05c0-1.29,0.04-2.95,0.13-5c0.09-2.04,0.24-4.67,0.46-7.9l0.59-9.09c0.22-2.84,0.46-7,0.72-12.5
		l0.65-13.99C122.21,73.21,122.36,68.97,122.49,64.33z"/>
	<path class="st4" d="M276.56,102.04c5.93,0.09,11.6,0.13,17.02,0.13c7.09,0,13-0.04,17.72-0.13c-1.13,14.4-1.93,30.38-2.41,47.95
		c-7.13,1.42-13.57,2.42-19.33,3s-10.65,0.87-14.69,0.87c-7.56,0-14.57-0.8-21.04-2.38c-6.47-1.59-11.93-4.17-16.4-7.73
		c-4.47-3.57-7.87-8.26-10.21-14.08c-2.34-5.82-3.51-11.98-3.51-18.47c0-5.54,0.87-10.89,2.61-16.05s4.32-9.88,7.73-14.18
		c3.42-4.3,7.54-7.87,12.38-10.73c4.83-2.86,9.97-4.81,15.4-5.87c5.44-1.05,11.18-1.58,17.24-1.58c8.34,0,17.92,1.12,28.75,3.35
		c0.04,4.88,0.28,9.99,0.71,15.34c-10.14-3.39-19.31-5.09-27.52-5.09c-5.29,0-10.28,0.75-14.99,2.26c-4.71,1.5-8.77,3.83-12.18,6.99
		s-6.02,7.07-7.8,11.73c-1.78,4.66-2.67,9.49-2.67,14.47c0,5.54,1.02,10.5,3.06,14.86c2.04,4.36,5.47,7.75,10.28,10.15
		c4.81,2.41,10.33,3.61,16.56,3.61c2.28,0,4.96-0.2,8.06-0.61c3.09-0.41,6.32-1.11,9.67-2.09l1.06-22.62l-5.1-0.06
		c-2.88,0-6.54,0.06-10.98,0.19C276.36,109.49,276.56,105.09,276.56,102.04z"/>
	<path class="st4" d="M334.17,152.31l1.87-24.69l1.35-28.55l0.84-25.97v-8.77c10.61,0.09,21.68,0.13,33.2,0.13l12.38-0.06
		l18.63-0.06l-0.77,13.92l-6.12-0.32c-1.68-0.09-4-0.15-6.96-0.19c-2.96-0.04-5.99-0.06-9.09-0.06c-6.7,0-11.03,0.01-12.99,0.03
		c-1.96,0.02-4.91,0.1-8.86,0.23l-1.05,22.88c5.89,0.13,11.82,0.19,17.8,0.19c4.13,0,11.09-0.13,20.89-0.39
		c-0.34,3.91-0.64,8.59-0.9,14.05c-11.47-0.13-18.04-0.19-19.72-0.19c-5.07,0-11.38,0.13-18.95,0.39l-1.05,24.11l7.09,0.06
		c2.06,0,6.79-0.04,14.18-0.13l13.99-0.26l9.35-0.45c-0.43,4.98-0.73,9.69-0.9,14.12c-11.17-0.09-21.25-0.13-30.23-0.13l-21.21,0.06
		L334.17,152.31z"/>
	<path class="st4" d="M422.65,152.31c0.81-7.69,1.43-16.33,1.86-25.91l1.48-31.58c0.51-11.43,0.77-21.59,0.77-30.49
		c4.98,0.09,9.21,0.13,12.69,0.13c2.58,0,6.33-0.04,11.27-0.13c4.86,8.47,11.57,19.51,20.13,33.13
		c8.56,13.62,15.46,24.9,20.71,33.84l2.36-59.81c0.04-1.42,0.06-3.8,0.06-7.15c4.04,0.09,7.1,0.13,9.16,0.13
		c0.82,0,3.83-0.04,9.03-0.13l-1.61,23.65l-1.99,40.48l-0.77,23.85c-4.47-0.09-8.27-0.13-11.41-0.13c-2.49,0-6.53,0.04-12.12,0.13
		c-2.15-3.82-3.78-6.66-4.9-8.51c-1.76-2.84-5.52-8.68-11.28-17.53c-3.78-5.84-8.51-13.32-14.19-22.43
		c-4.17-6.7-7.74-12.55-10.7-17.53c-0.34,6.96-0.87,19.87-1.6,38.74c-0.3,7.69-0.53,16.78-0.7,27.26c-4.04-0.09-6.97-0.13-8.78-0.13
		C430.71,152.18,427.55,152.23,422.65,152.31z"/>
	<path class="st4" d="M534.34,152.31l1.73-22.43l1.28-28.04l0.83-27.91c0.04-1.2,0.06-4.4,0.06-9.6c4.77,0.09,9.26,0.13,13.47,0.13
		c3.14,0,7.27-0.06,12.41-0.19c5.14-0.13,9.57-0.19,13.31-0.19c5.07,0,9.77,0.3,14.08,0.9c4.32,0.6,8.09,1.73,11.31,3.38
		c3.22,1.65,6.02,3.73,8.38,6.22c2.36,2.49,4.3,5.25,5.8,8.28s2.65,6.4,3.45,10.12c0.79,3.72,1.19,7.51,1.19,11.38
		c0,7.39-1.28,14.43-3.83,21.11c-2.56,6.68-6.37,12.2-11.44,16.56c-5.07,4.36-10.69,7.17-16.85,8.41
		c-6.17,1.25-13.16,1.87-20.98,1.87l-21.91-0.13C545.27,152.18,541.17,152.23,534.34,152.31z M554.11,138.58
		c3.52,0.17,7,0.26,10.44,0.26c3.91,0,7.53-0.19,10.86-0.58c3.33-0.39,6.2-1,8.61-1.84s4.82-2.31,7.25-4.42
		c2.43-2.1,4.42-4.54,5.96-7.32s2.73-5.85,3.55-9.25c0.82-3.39,1.23-6.85,1.23-10.38c0-6.45-1.1-11.74-3.29-15.89
		c-2.19-4.15-5.08-7.13-8.67-8.96c-3.59-1.83-9.12-2.74-16.6-2.74c-4.86,0-10.42,0.09-16.69,0.26L554.11,138.58z"/>
	<path class="st4" d="M49.77,274.31c0.78-8.42,1.3-15.19,1.56-20.3c0.48-8.55,0.97-20.8,1.49-36.74
		c0.39-11.77,0.58-20.09,0.58-24.94v-5.99c12.33,0.09,23.11,0.13,32.34,0.13l18.04-0.06l10.76-0.06c-0.47,6.4-0.73,11.04-0.77,13.92
		l-9.22-0.32l-3.74-0.06h-5.03h-9.8l-13.34,0.06l-0.78,23.14l10.96,0.19c8.34,0,13.69-0.02,16.05-0.06l8.77-0.13
		c-0.3,4.98-0.49,9.54-0.58,13.66c-7.47-0.17-13.42-0.26-17.85-0.26c-5.58,0-11.62,0.09-18.1,0.26l-0.7,28.49l-0.06,5.8v3.29
		l-9.87-0.13C59.96,274.18,56.39,274.23,49.77,274.31z"/>
	<path class="st4" d="M132.84,274.31l1.87-24.69l1.35-28.55l0.84-25.97v-8.77c10.61,0.09,21.68,0.13,33.2,0.13l12.38-0.06
		l18.63-0.06l-0.77,13.92l-6.12-0.32c-1.68-0.09-4-0.15-6.96-0.19c-2.96-0.04-5.99-0.06-9.09-0.06c-6.7,0-11.03,0.01-12.99,0.03
		c-1.96,0.02-4.91,0.1-8.86,0.23l-1.05,22.88c5.89,0.13,11.82,0.19,17.8,0.19c4.13,0,11.09-0.13,20.89-0.39
		c-0.34,3.91-0.64,8.59-0.9,14.05c-11.47-0.13-18.04-0.19-19.72-0.19c-5.07,0-11.38,0.13-18.95,0.39l-1.05,24.11l7.09,0.06
		c2.06,0,6.79-0.04,14.18-0.13l13.99-0.26l9.35-0.45c-0.43,4.98-0.73,9.69-0.9,14.12c-11.17-0.09-21.25-0.13-30.23-0.13l-21.21,0.06
		L132.84,274.31z"/>
	<path class="st4" d="M219.06,272.44c-0.34-6.53-0.8-11.86-1.35-15.98c8.42,3.82,16.07,5.74,22.95,5.74c2.75,0,5.32-0.42,7.7-1.26
		s4.15-2.02,5.29-3.54c1.14-1.52,1.71-3.23,1.71-5.12c0-1.46-0.27-2.77-0.82-3.93c-0.82-1.59-2.19-3.24-4.11-4.96
		c-2.46-2.36-6.84-6.25-13.15-11.67c-3.01-2.62-5.08-4.49-6.22-5.61c-2.58-2.45-4.56-4.65-5.93-6.61c-1.38-1.95-2.36-3.9-2.96-5.83
		c-0.6-1.93-0.9-4-0.9-6.19c0-4.04,1.13-7.83,3.38-11.38s5.63-6.32,10.12-8.31c4.49-2,10.15-3,16.98-3c6.14,0,13.06,0.75,20.75,2.26
		c0.21,4.47,0.64,9.58,1.29,15.34c-6.69-2.58-12.87-3.87-18.53-3.87c-4.2,0-7.64,0.96-10.32,2.87c-2.68,1.91-4.02,4.14-4.02,6.67
		c0,0.69,0.09,1.41,0.28,2.16c0.19,0.75,0.47,1.48,0.84,2.19c0.37,0.71,1.04,1.63,2,2.77c0.96,1.14,2.36,2.47,4.21,4
		c1.85,1.53,3.42,2.76,4.73,3.71l7.95,7.22c2.02,1.68,3.82,3.31,5.4,4.9c1.59,1.59,2.95,3.12,4.08,4.58
		c1.14,1.46,2.03,2.86,2.67,4.19c0.64,1.33,1.13,2.7,1.45,4.09c0.32,1.4,0.48,2.87,0.48,4.42c0,3.61-0.84,7.02-2.51,10.22
		c-1.68,3.2-4.08,5.83-7.22,7.9c-3.14,2.06-6.57,3.49-10.31,4.29s-7.69,1.19-11.86,1.19c-2.75,0-5.95-0.24-9.6-0.71
		C229.85,274.68,225.04,273.78,219.06,272.44z"/>
	<path class="st4" d="M315.54,274.31l1.41-18.82l1.41-28.04l0.9-27.59h-4.5l-4.18,0.06l-3.99,0.06l-14.87,0.45
		c0.34-6.19,0.54-10.89,0.58-14.12c12.37,0.09,25.32,0.13,38.85,0.13l23.13-0.06l12.37-0.07c-0.43,6.12-0.64,10.82-0.64,14.12
		c-7.78-0.39-15.23-0.58-22.37-0.58h-4.96l-0.77,11.77l-1.85,45.3l-0.13,7.59c-0.04,3.13-0.06,6.39-0.06,9.78l-9.81-0.13
		C324.98,274.18,321.48,274.23,315.54,274.31z"/>
</g>
<g>
	<path class="st4" d="M74.22,812.15c2.64-25.81,4.22-54.22,4.75-85.24l-33.9,0.88l0.4-8.84c0.21-4.73,0.37-9.9,0.48-15.53
		c15.08,0.11,32.65,0.16,52.72,0.16l19.67-0.08h19.11l10.35-0.08l-0.48,7.8c-0.21,4.18-0.36,7.64-0.44,10.38
		c-0.08,2.74-0.12,4.8-0.12,6.19c-11.36-0.58-20.72-0.88-28.1-0.88h-5.57c-0.8,9.38-1.42,18.05-1.84,26
		c-0.59,11.4-1.04,22.46-1.36,33.2c-0.32,10.73-0.48,19.42-0.48,26.04c-8.7-0.11-14.33-0.16-16.88-0.16
		C90.24,811.99,84.14,812.04,74.22,812.15z"/>
	<path class="st4" d="M228.99,701.34c8.5,0,16.68,1.14,24.54,3.43c7.86,2.28,14.74,5.93,20.63,10.95s10.3,10.79,13.22,17.33
		c2.92,6.53,4.38,14.05,4.38,22.54c0,8.92-1.61,17.12-4.82,24.58c-3.21,7.46-7.85,13.79-13.9,19c-6.05,5.21-13.28,9.02-21.67,11.43
		c-8.39,2.42-17.13,3.62-26.21,3.62c-8.98,0-17.58-1.18-25.81-3.54c-8.23-2.36-15.39-6.19-21.47-11.47
		c-6.08-5.28-10.4-11.17-12.95-17.65c-2.55-6.48-3.82-13.67-3.82-21.59c0-11.63,2.69-21.84,8.09-30.63
		c5.39-8.79,13.38-15.65,23.98-20.59C203.77,703.81,215.71,701.34,228.99,701.34z M227.55,725.32c-6.11,0-11.63,1.5-16.57,4.5
		c-4.94,3-8.74,7.17-11.39,12.51c-2.66,5.34-3.98,11.06-3.98,17.17c0,5.63,1.21,10.78,3.62,15.46c2.42,4.67,6.09,8.32,11.03,10.95
		s10.17,3.94,15.69,3.94c5.9,0,11.3-1.47,16.21-4.42c4.91-2.95,8.66-7.09,11.23-12.43c2.58-5.34,3.86-10.93,3.86-16.77
		c0-5.68-1.19-10.93-3.58-15.73c-2.39-4.81-5.9-8.54-10.52-11.19C238.55,726.64,233.34,725.32,227.55,725.32z"/>
	<path class="st4" d="M338.35,812.15c2.64-25.81,4.22-54.22,4.75-85.24l-33.9,0.88l0.4-8.84c0.21-4.73,0.37-9.9,0.48-15.53
		c15.08,0.11,32.65,0.16,52.72,0.16l19.67-0.08h19.11l10.35-0.08l-0.48,7.8c-0.21,4.18-0.36,7.64-0.44,10.38
		c-0.08,2.74-0.12,4.8-0.12,6.19c-11.36-0.58-20.72-0.88-28.1-0.88h-5.57c-0.8,9.38-1.42,18.05-1.84,26
		c-0.59,11.4-1.04,22.46-1.36,33.2c-0.32,10.73-0.48,19.42-0.48,26.04c-8.7-0.11-14.33-0.16-16.88-0.16
		C354.38,811.99,348.28,812.04,338.35,812.15z"/>
	<path class="st4" d="M493.12,701.34c8.5,0,16.68,1.14,24.54,3.43s14.74,5.93,20.63,10.95s10.3,10.79,13.22,17.33
		c2.92,6.53,4.38,14.05,4.38,22.54c0,8.92-1.61,17.12-4.82,24.58c-3.21,7.46-7.85,13.79-13.9,19c-6.05,5.21-13.28,9.02-21.67,11.43
		c-8.39,2.42-17.13,3.62-26.21,3.62c-8.98,0-17.58-1.18-25.81-3.54c-8.23-2.36-15.39-6.19-21.47-11.47
		c-6.08-5.28-10.4-11.17-12.95-17.65c-2.55-6.48-3.82-13.67-3.82-21.59c0-11.63,2.69-21.84,8.09-30.63
		c5.39-8.79,13.38-15.65,23.98-20.59C467.91,703.81,479.85,701.34,493.12,701.34z M491.69,725.32c-6.11,0-11.63,1.5-16.57,4.5
		c-4.94,3-8.74,7.17-11.39,12.51c-2.66,5.34-3.98,11.06-3.98,17.17c0,5.63,1.21,10.78,3.62,15.46c2.42,4.67,6.09,8.32,11.03,10.95
		s10.17,3.94,15.69,3.94c5.9,0,11.3-1.47,16.21-4.42c4.91-2.95,8.66-7.09,11.23-12.43c2.58-5.34,3.86-10.93,3.86-16.77
		c0-5.68-1.2-10.93-3.58-15.73c-2.39-4.81-5.89-8.54-10.52-11.19C502.68,726.64,497.48,725.32,491.69,725.32z"/>
</g>
<g>
	<path class="st5" d="M77.09,936.69c2.64-25.81,4.22-54.22,4.75-85.24l-33.9,0.88l0.4-8.84c0.21-4.73,0.37-9.9,0.48-15.53
		c15.08,0.11,32.65,0.16,52.72,0.16l19.67-0.08h19.11l10.35-0.08l-0.48,7.8c-0.21,4.18-0.36,7.64-0.44,10.38
		c-0.08,2.74-0.12,4.8-0.12,6.19c-11.36-0.58-20.72-0.88-28.1-0.88h-5.57c-0.8,9.38-1.42,18.05-1.84,26
		c-0.59,11.4-1.04,22.46-1.36,33.2c-0.32,10.73-0.48,19.42-0.48,26.04c-8.7-0.11-14.33-0.16-16.88-0.16
		C93.12,936.53,87.02,936.58,77.09,936.69z"/>
	<path class="st5" d="M231.87,825.88c8.5,0,16.68,1.14,24.54,3.43c7.86,2.28,14.74,5.93,20.63,10.95s10.3,10.79,13.22,17.33
		c2.92,6.53,4.38,14.05,4.38,22.54c0,8.92-1.61,17.12-4.82,24.58c-3.21,7.46-7.85,13.79-13.9,19c-6.05,5.21-13.28,9.02-21.67,11.43
		c-8.39,2.42-17.13,3.62-26.21,3.62c-8.98,0-17.58-1.18-25.81-3.54c-8.23-2.36-15.39-6.19-21.47-11.47
		c-6.08-5.28-10.4-11.17-12.95-17.65c-2.55-6.48-3.82-13.67-3.82-21.59c0-11.63,2.69-21.84,8.09-30.63
		c5.39-8.79,13.38-15.65,23.98-20.59C206.65,828.35,218.59,825.88,231.87,825.88z M230.43,849.86c-6.11,0-11.63,1.5-16.57,4.5
		c-4.94,3-8.74,7.17-11.39,12.51c-2.66,5.34-3.98,11.06-3.98,17.17c0,5.63,1.21,10.78,3.62,15.46c2.42,4.67,6.09,8.32,11.03,10.95
		s10.17,3.94,15.69,3.94c5.9,0,11.3-1.47,16.21-4.42c4.91-2.95,8.66-7.09,11.23-12.43c2.58-5.34,3.86-10.93,3.86-16.77
		c0-5.68-1.19-10.93-3.58-15.73c-2.39-4.81-5.9-8.54-10.52-11.19C241.43,851.19,236.22,849.86,230.43,849.86z"/>
	<path class="st5" d="M341.23,936.69c2.64-25.81,4.22-54.22,4.75-85.24l-33.9,0.88l0.4-8.84c0.21-4.73,0.37-9.9,0.48-15.53
		c15.08,0.11,32.65,0.16,52.72,0.16l19.67-0.08h19.11l10.35-0.08l-0.48,7.8c-0.21,4.18-0.36,7.64-0.44,10.38
		c-0.08,2.74-0.12,4.8-0.12,6.19c-11.36-0.58-20.72-0.88-28.1-0.88h-5.57c-0.8,9.38-1.42,18.05-1.84,26
		c-0.59,11.4-1.04,22.46-1.36,33.2c-0.32,10.73-0.48,19.42-0.48,26.04c-8.7-0.11-14.33-0.16-16.88-0.16
		C357.26,936.53,351.15,936.58,341.23,936.69z"/>
	<path class="st5" d="M496,825.88c8.5,0,16.68,1.14,24.54,3.43s14.74,5.93,20.63,10.95s10.3,10.79,13.22,17.33
		c2.92,6.53,4.38,14.05,4.38,22.54c0,8.92-1.61,17.12-4.82,24.58c-3.21,7.46-7.85,13.79-13.9,19c-6.05,5.21-13.28,9.02-21.67,11.43
		c-8.39,2.42-17.13,3.62-26.21,3.62c-8.98,0-17.58-1.18-25.81-3.54c-8.23-2.36-15.39-6.19-21.47-11.47
		c-6.08-5.28-10.4-11.17-12.95-17.65c-2.55-6.48-3.82-13.67-3.82-21.59c0-11.63,2.69-21.84,8.09-30.63
		c5.39-8.79,13.38-15.65,23.98-20.59C470.79,828.35,482.72,825.88,496,825.88z M494.57,849.86c-6.11,0-11.63,1.5-16.57,4.5
		c-4.94,3-8.74,7.17-11.39,12.51c-2.66,5.34-3.98,11.06-3.98,17.17c0,5.63,1.21,10.78,3.62,15.46c2.42,4.67,6.09,8.32,11.03,10.95
		s10.17,3.94,15.69,3.94c5.9,0,11.3-1.47,16.21-4.42c4.91-2.95,8.66-7.09,11.23-12.43c2.58-5.34,3.86-10.93,3.86-16.77
		c0-5.68-1.2-10.93-3.58-15.73c-2.39-4.81-5.89-8.54-10.52-11.19C505.56,851.19,500.35,849.86,494.57,849.86z"/>
</g>
<g>
	<path class="st4" d="M948.55,1063.72c-5.05,0.27-9.98,0.61-14.8,1.02c1.27-3.34,2.13-6.03,2.57-8.09s0.66-3.97,0.66-5.74
		c0-1.98-0.35-3.75-1.06-5.32c-0.56-1.18-1.29-2.11-2.17-2.79c-1.24-0.92-2.69-1.54-4.34-1.86c-2.98-0.56-8.17-0.99-15.57-1.29
		c-7.4-0.3-13.8-0.45-19.21-0.45h-5.18c0.06-4.72,0.09-7.87,0.09-9.43c0-1.95-0.03-5.28-0.09-10l19.58,1.34
		c5.79,0.33,11.95,0.57,18.48,0.71c5.02,0.12,8.46,0.37,10.32,0.75c1.68,0.35,3.1,0.86,4.25,1.51c1.09,0.59,2.07,1.33,2.92,2.21
		c1.03,1.09,1.93,2.41,2.7,3.94c1.06,2.07,1.86,4.27,2.39,6.6c0.59,2.57,0.89,5.32,0.89,8.24
		C950.99,1050.47,950.18,1056.69,948.55,1063.72z"/>
	<path class="st4" d="M889.45,1003.46c0.06-4.6,0.09-7.85,0.09-9.74c0-2.36-0.03-5.51-0.09-9.43l18.83,1.32
		c3.54,0.26,6.87,0.46,9.97,0.59c3.1,0.13,5.24,0.2,6.42,0.2c2.25,0,4.12-0.16,5.63-0.49c1.51-0.32,2.78-0.92,3.83-1.77
		c1.05-0.86,1.84-2.04,2.37-3.56c0.53-1.52,0.8-3.11,0.8-4.76c0-1.42-0.19-2.75-0.58-3.98c-0.32-0.97-0.76-1.84-1.32-2.61
		c-0.53-0.68-1.14-1.27-1.85-1.77c-0.84-0.62-1.9-1.17-3.17-1.64c-1.2-0.47-2.74-0.83-4.64-1.06c-1.93-0.27-6.33-0.62-13.19-1.06
		c-5.84-0.38-11.18-0.68-16.04-0.89c-4.71-0.18-7.07-0.34-7.07-0.49c0-4.46,0-7.97,0-10.54v-8.99l31.46,2.15
		c0.59,0.03,1.08,0.04,1.46,0.04c6.14,0.12,10.48,0.5,13,1.13s4.72,1.69,6.58,3.17c1.86,1.48,3.54,3.63,5.03,6.47
		c1.49,2.84,2.55,6.06,3.17,9.66c0.62,3.6,0.93,7.25,0.93,10.95c0,3.31-0.24,6.5-0.71,9.57c-0.47,2.84-1.16,5.39-2.06,7.67
		c-0.9,2.28-1.96,4.25-3.17,5.94c-1.12,1.54-2.27,2.72-3.43,3.55c-1.17,0.83-2.56,1.48-4.19,1.95c-1.83,0.53-3.79,0.8-5.89,0.8
		c-0.71,0-1.78-0.03-3.21-0.09s-3.49-0.19-6.18-0.4l-7.09-0.58c-1.86-0.15-4.59-0.31-8.2-0.49L889.45,1003.46z"/>
	<path class="st4" d="M914.66,894.66c0.06-4.05,0.09-7.9,0.09-11.56c0-6.26-0.03-11.17-0.09-14.71c4.05,0.38,9.78,0.77,17.19,1.17
		c7.41,0.4,13.01,0.64,16.79,0.73c0.62,3.4,1.07,6.21,1.35,8.44c0.28,2.23,0.53,4.91,0.75,8.04s0.33,5.92,0.33,8.37
		c0,4.02-0.33,7.96-0.98,11.83c-0.65,3.87-1.7,7.33-3.15,10.39c-1.45,3.06-3.41,5.61-5.89,7.64c-2.48,2.04-5.42,3.61-8.82,4.72
		c-3.4,1.11-6.91,1.66-10.54,1.66c-6,0-11.56-1.49-16.7-4.47c-5.14-2.98-9.21-7.27-12.21-12.87c-3-5.6-4.5-12.83-4.5-21.69
		c0-6.47,0.78-13.63,2.35-21.49c4.31,0,9.11-0.19,14.4-0.58c-0.71,2.13-1.25,3.85-1.62,5.16c-0.37,1.31-0.71,2.85-1.02,4.61
		c-0.31,1.76-0.54,3.43-0.69,5.01c-0.15,1.58-0.22,2.99-0.22,4.23c0,3.25,0.47,6.32,1.4,9.21c0.93,2.9,2.36,5.38,4.3,7.47
		c1.94,2.08,4.25,3.64,6.93,4.67c2.69,1.03,5.52,1.55,8.51,1.55c3.04,0,5.75-0.59,8.13-1.77c2.38-1.18,4.19-3.06,5.43-5.63
		c1.24-2.57,1.86-5.43,1.86-8.6c0-2.63-0.38-5.51-1.15-8.64l-9.61-0.5c-0.09,1.92-0.13,3.06-0.13,3.42l0.04,4.71l-5.45-0.31
		c-0.59-0.03-1.44-0.07-2.55-0.13C918.09,894.69,916.58,894.66,914.66,894.66z"/>
	<path class="st4" d="M949.92,854.13c-7.62-0.74-14-1.28-19.14-1.62c-5.14-0.34-11.97-0.68-20.49-1.02s-14.17-0.51-16.95-0.51
		l-3.9,0.04c0.06-6.97,0.09-15.4,0.09-25.29c0-9.12-0.03-17.17-0.09-24.14l1.46,0.09c0.35,0.03,1.63,0.1,3.84,0.22l4.81,0.27
		c1.03,0.06,2.08,0.09,3.13,0.09c-0.24,5.7-0.35,10.49-0.35,14.36c0,4.25,0.01,7.13,0.02,8.62c0.02,1.49,0.08,3.82,0.2,6.98
		l10.19,0.54c0.09-3.49,0.13-7.55,0.13-12.19c0-1.65-0.1-6.06-0.31-13.21c3.78,0.29,8.29,0.58,13.51,0.84
		c-0.06,5.11-0.09,9.03-0.09,11.78c0,4.07,0.1,8.63,0.31,13.68l10.77,0.53v-5.09c0-1.5-0.04-4.62-0.13-9.34l-0.22-9.17
		c-0.03-1.36-0.15-3.63-0.35-6.82c4.37,0.35,8.89,0.65,13.56,0.89c-0.06,7.21-0.09,15.11-0.09,23.7l0.04,19.49L949.92,854.13z"/>
	<path class="st4" d="M949.92,788.88l-9.3-0.89l-31.55-1.73l-12.71-0.49h-6.91c0.06-4.59,0.09-8.64,0.09-12.16
		c0-2.51-0.03-6.05-0.09-10.61l34.39-18.91l5.05-2.61c-4.96-0.33-11.92-0.67-20.88-1.02s-15.14-0.52-18.57-0.52
		c0.06-3.63,0.09-6.54,0.09-8.72c0-1-0.03-3.89-0.09-8.67l13.2,1.06l36.68,1.99l10.59,0.27c-0.06,3.84-0.09,7.43-0.09,10.77
		c0,2.78,0.03,6.62,0.09,11.53c-2.9,1.53-4.99,2.67-6.29,3.41L931,759.02c-4.14,2.45-8.1,4.71-11.88,6.77
		c-2.39,1.36-5.02,2.76-7.89,4.2l21.01,0.95l17.68,0.45c-0.06,3.66-0.09,6.45-0.09,8.36C949.84,781.38,949.87,784.42,949.92,788.88z
		"/>
	<path class="st4" d="M949.92,709c-6.73-0.65-12.12-1.1-16.17-1.34c-6.03-0.36-13.82-0.71-23.39-1.07
		c-7.33-0.27-12.57-0.4-15.73-0.4h-5.18c0.09-3.45,0.13-6.44,0.13-8.95c0-2.42-0.07-5.6-0.2-9.52c-0.13-3.93-0.2-7.62-0.2-11.07
		c0-3.96,0.24-7.43,0.71-10.41s1.45-5.77,2.92-8.35c1.48-2.58,3.41-4.75,5.8-6.49c2.39-1.74,5.19-3.07,8.4-3.99
		c3.21-0.92,6.51-1.37,9.9-1.37c3.34,0,6.55,0.35,9.64,1.06c3.09,0.71,5.87,1.7,8.35,2.97c2.48,1.27,4.62,2.75,6.4,4.45
		c1.79,1.7,3.32,3.64,4.58,5.83c0.95,1.62,1.68,3.26,2.22,4.92c0.53,1.65,0.96,3.91,1.29,6.78c0.35,3.19,0.53,6.81,0.53,10.85
		l-0.13,17.9C949.79,702.49,949.84,705.22,949.92,709z M936.59,689.85c0.15-1.62,0.22-3.32,0.22-5.09c0-3.01-0.27-5.7-0.8-8.06
		c-0.53-2.36-1.67-4.43-3.41-6.22c-1.74-1.79-3.98-3.11-6.71-3.96c-2.73-0.86-5.53-1.28-8.4-1.28c-3.51,0-6.48,0.64-8.88,1.91
		c-2.41,1.27-4.08,2.96-5.03,5.07c-0.95,2.11-1.42,4.98-1.42,8.62c0,2.13,0.09,4.64,0.27,7.53L936.59,689.85z"/>
	<path class="st4" d="M949.92,633.38c-6-0.62-10.81-1.05-14.44-1.28c-5.38-0.35-12.77-0.69-22.17-1.02
		c-9.41-0.32-15.74-0.49-18.98-0.49h-4.87c0.06-8.89,0.09-17.16,0.09-24.81c0-7.71-0.03-15.12-0.09-22.24
		c6.79,0.47,11.24,0.71,13.34,0.71l-0.13,3.85l-0.04,3.1l-0.04,3.1v8.73c0,1,0.03,3.94,0.09,8.82l10.32,0.4l0.13-6.42v-7.18
		c0-2.07-0.04-5.23-0.13-9.48c5.58,0.33,9.95,0.49,13.11,0.49c-0.15,4.75-0.22,8.27-0.22,10.57c0,3.89,0.07,8.14,0.22,12.74
		l15.95,0.46l5.94,0.05h1.95l-0.09,9.54C949.84,623.74,949.87,627.2,949.92,633.38z"/>
	<path class="st4" d="M949.92,572.56c-7.62-0.74-14-1.28-19.14-1.62c-5.14-0.34-11.97-0.68-20.49-1.02s-14.17-0.51-16.95-0.51
		l-3.9,0.04c0.06-6.97,0.09-15.4,0.09-25.29c0-9.12-0.03-17.17-0.09-24.14l1.46,0.09c0.35,0.03,1.63,0.1,3.84,0.22l4.81,0.27
		c1.03,0.06,2.08,0.09,3.13,0.09c-0.24,5.7-0.35,10.49-0.35,14.36c0,4.25,0.01,7.13,0.02,8.62c0.02,1.49,0.08,3.82,0.2,6.98
		l10.19,0.54c0.09-3.49,0.13-7.55,0.13-12.19c0-1.65-0.1-6.06-0.31-13.21c3.78,0.29,8.29,0.58,13.51,0.84
		c-0.06,5.11-0.09,9.03-0.09,11.78c0,4.07,0.1,8.63,0.31,13.68l10.77,0.53v-5.09c0-1.5-0.04-4.62-0.13-9.34l-0.22-9.17
		c-0.03-1.36-0.15-3.63-0.35-6.82c4.37,0.35,8.89,0.65,13.56,0.89c-0.06,7.21-0.09,15.11-0.09,23.7l0.04,19.49L949.92,572.56z"/>
	<path class="st4" d="M948.99,507.88c-6.29,0.38-11.33,0.83-15.11,1.33c1.48-3.31,2.5-6.27,3.08-8.86c0.58-2.59,0.86-4.86,0.86-6.81
		c0-2.57-0.38-4.62-1.13-6.15c-0.75-1.52-1.87-2.29-3.35-2.29c-0.5,0-0.98,0.07-1.44,0.22c-0.46,0.15-0.97,0.43-1.55,0.84
		c-0.58,0.42-1.2,1.01-1.88,1.78l-7.27,8.35c-1.65,1.95-2.85,3.31-3.59,4.08c-1.51,1.57-2.91,2.79-4.21,3.66
		c-1.3,0.87-2.62,1.51-3.96,1.91c-1.34,0.4-2.77,0.6-4.28,0.6c-1.8,0-3.57-0.32-5.29-0.95c-1.73-0.63-3.34-1.59-4.85-2.86
		c-1.51-1.27-2.81-2.95-3.9-5.05c-1.09-2.1-1.84-4.34-2.24-6.73s-0.6-4.86-0.6-7.4c0-4.99,0.58-10.43,1.73-16.3
		c2.04-0.09,3.91-0.19,5.6-0.31c1.7-0.12,4.67-0.4,8.93-0.84c-1.09,2.72-1.85,5.2-2.28,7.44c-0.43,2.25-0.64,4.18-0.64,5.8
		c0,2.3,0.43,4.22,1.29,5.74c0.86,1.52,1.92,2.28,3.19,2.28c0.59,0,1.17-0.12,1.73-0.35c0.56-0.24,1.22-0.68,1.97-1.33
		c0.75-0.65,1.58-1.51,2.48-2.57c0.9-1.06,2.24-2.73,4.01-5.01l2.53-3.19c0.77-0.94,1.7-1.96,2.79-3.06
		c1.09-1.09,2.17-2.04,3.23-2.84c1.06-0.8,2.04-1.41,2.92-1.84c0.89-0.43,1.78-0.75,2.68-0.95c0.9-0.21,1.87-0.31,2.9-0.31
		c2.66,0,5.19,0.64,7.6,1.91c2.41,1.27,4.39,3.07,5.94,5.41c1.55,2.33,2.64,4.9,3.26,7.69c0.62,2.79,0.93,5.74,0.93,8.84
		C951.08,494.54,950.38,500.58,948.99,507.88z"/>
	<path class="st4" d="M949.92,438.37c-14.35-1.47-30.16-2.35-47.41-2.64l0.49,18.86l-4.92-0.22c-2.63-0.12-5.51-0.21-8.64-0.27
		c0.06-8.39,0.09-18.16,0.09-29.32l-0.04-10.94v-10.63l-0.04-5.76l4.34,0.27c2.33,0.12,4.25,0.2,5.77,0.24
		c1.52,0.04,2.67,0.07,3.45,0.07c-0.33,6.32-0.49,11.52-0.49,15.63v3.1c5.22,0.45,10.04,0.79,14.46,1.03
		c6.34,0.33,12.49,0.58,18.46,0.76c5.97,0.18,10.8,0.27,14.48,0.27c-0.06,4.84-0.09,7.97-0.09,9.39
		C949.84,429.46,949.87,432.85,949.92,438.37z"/>
</g>
<g>
	<path class="st6" d="M903.45,232.19l-11.11-6.79c-0.97-0.6-4.56-2.69-10.77-6.28l0.11-5.33c0-0.52-0.04-2.3-0.11-5.33l6.4,2.08
		c1.61,0.56,3.78,1.27,6.51,2.13l8.98,2.86l-0.11,7.57C903.34,223.85,903.38,226.88,903.45,232.19z"/>
	<path class="st6" d="M958.15,198.71c-1.76-0.15-4.08-0.27-6.98-0.36c-2.9-0.09-5.86-0.21-8.88-0.36
		c-3.18-3.89-6.27-7.46-9.26-10.72c-4.86-5.27-9.43-9.95-13.69-14.03c-3.4-3.25-6.53-5.98-9.37-8.19c-1.68-1.27-3.09-2.11-4.21-2.52
		c-0.79-0.3-1.59-0.45-2.41-0.45c-1.08,0-2.03,0.24-2.83,0.73c-0.8,0.49-1.49,1.25-2.05,2.3c-0.56,1.05-1.01,2.32-1.35,3.81
		c-0.34,1.5-0.5,3.2-0.5,5.11c0,2.62,0.22,5.38,0.67,8.28c0.45,2.9,1.31,6.85,2.58,11.87l-8.02-1.46c-1.61-0.34-4.69-0.82-9.26-1.46
		c-1.65-9.84-2.47-19.06-2.47-27.66c0-3.93,0.36-7.69,1.07-11.28c0.71-3.59,1.92-6.81,3.62-9.65c1.7-2.84,3.68-4.97,5.95-6.4
		c2.26-1.42,4.7-2.13,7.32-2.13c1.72,0,3.42,0.21,5.11,0.62c1.61,0.41,3.5,1.18,5.67,2.3c2.69,1.42,5.35,3.18,7.97,5.27
		c3.93,3.11,7.99,6.7,12.17,10.77c3.96,3.89,8.42,8.57,13.35,14.03l0.06-6.17c0-1.46-0.04-4.35-0.11-8.67
		c-0.08-4.32-0.15-7.32-0.22-9c-0.07-1.68-0.24-3.76-0.5-6.23c1.79,0.11,4.04,0.29,6.73,0.53c2.69,0.24,5.99,0.5,9.88,0.76
		c-0.07,9.31-0.11,19.06-0.11,29.23C958.04,179.84,958.08,190.22,958.15,198.71z"/>
	<path class="st6" d="M958.15,117.08c-1.76-0.15-4.08-0.27-6.98-0.36c-2.9-0.09-5.86-0.21-8.88-0.36
		c-3.18-3.89-6.27-7.46-9.26-10.72c-4.86-5.27-9.43-9.95-13.69-14.03c-3.4-3.25-6.53-5.98-9.37-8.19c-1.68-1.27-3.09-2.11-4.21-2.52
		c-0.79-0.3-1.59-0.45-2.41-0.45c-1.08,0-2.03,0.24-2.83,0.73c-0.8,0.49-1.49,1.25-2.05,2.3c-0.56,1.05-1.01,2.32-1.35,3.81
		c-0.34,1.5-0.5,3.2-0.5,5.11c0,2.62,0.22,5.38,0.67,8.28c0.45,2.9,1.31,6.85,2.58,11.87l-8.02-1.46c-1.61-0.34-4.69-0.82-9.26-1.46
		c-1.65-9.84-2.47-19.06-2.47-27.66c0-3.93,0.36-7.69,1.07-11.28c0.71-3.59,1.92-6.81,3.62-9.65c1.7-2.84,3.68-4.97,5.95-6.4
		c2.26-1.42,4.7-2.13,7.32-2.13c1.72,0,3.42,0.21,5.11,0.62c1.61,0.41,3.5,1.18,5.67,2.3c2.69,1.42,5.35,3.18,7.97,5.27
		c3.93,3.11,7.99,6.7,12.17,10.77c3.96,3.89,8.42,8.57,13.35,14.03l0.06-6.17c0-1.46-0.04-4.35-0.11-8.67
		c-0.08-4.32-0.15-7.32-0.22-9c-0.07-1.68-0.24-3.76-0.5-6.23c1.79,0.11,4.04,0.29,6.73,0.53c2.69,0.24,5.99,0.5,9.88,0.76
		c-0.07,9.31-0.11,19.06-0.11,29.23C958.04,98.21,958.08,108.59,958.15,117.08z"/>
</g>
<g>
	<path class="st7" d="M114.83,323.43l8.2-13.41c0.72-1.17,3.25-5.51,7.59-13.01l6.44,0.14c0.63,0,2.78-0.04,6.44-0.14l-2.51,7.72
		c-0.68,1.94-1.54,4.56-2.57,7.86l-3.45,10.84l-9.15-0.14C124.9,323.3,121.24,323.34,114.83,323.43z"/>
	<path class="st7" d="M155.26,389.48c0.18-2.12,0.33-4.93,0.44-8.43c0.11-3.5,0.26-7.07,0.44-10.73c4.7-3.84,9.01-7.57,12.94-11.18
		c6.37-5.87,12.01-11.38,16.94-16.53c3.93-4.11,7.23-7.88,9.89-11.32c1.53-2.03,2.55-3.73,3.05-5.08c0.36-0.95,0.54-1.92,0.54-2.91
		c0-1.31-0.29-2.45-0.88-3.42c-0.59-0.97-1.51-1.8-2.78-2.47c-1.26-0.68-2.8-1.22-4.61-1.63c-1.81-0.41-3.86-0.61-6.16-0.61
		c-3.16,0-6.49,0.27-9.99,0.81c-3.5,0.54-8.28,1.58-14.33,3.12l1.76-9.69c0.41-1.94,0.99-5.67,1.76-11.18
		c11.88-1.99,23.01-2.98,33.4-2.98c4.74,0,9.28,0.43,13.62,1.29c4.33,0.86,8.22,2.31,11.65,4.37c3.43,2.06,6.01,4.45,7.72,7.18
		c1.72,2.73,2.57,5.68,2.57,8.84c0,2.08-0.25,4.13-0.75,6.16c-0.5,1.94-1.42,4.22-2.78,6.84c-1.72,3.25-3.84,6.46-6.37,9.62
		c-3.75,4.74-8.08,9.64-13.01,14.7c-4.7,4.79-10.34,10.16-16.93,16.12l7.45,0.07c1.76,0,5.25-0.04,10.47-0.14
		c5.22-0.09,8.84-0.18,10.87-0.27c2.03-0.09,4.54-0.29,7.52-0.61c-0.14,2.17-0.35,4.88-0.64,8.13c-0.29,3.25-0.6,7.23-0.91,11.92
		c-11.25-0.09-23.01-0.14-35.29-0.14C178.04,389.34,165.51,389.39,155.26,389.48z"/>
	<path class="st7" d="M253.81,389.48c0.18-2.12,0.33-4.93,0.44-8.43c0.11-3.5,0.26-7.07,0.44-10.73c4.7-3.84,9.01-7.57,12.94-11.18
		c6.37-5.87,12.01-11.38,16.94-16.53c3.93-4.11,7.23-7.88,9.89-11.32c1.53-2.03,2.55-3.73,3.05-5.08c0.36-0.95,0.54-1.92,0.54-2.91
		c0-1.31-0.29-2.45-0.88-3.42c-0.59-0.97-1.51-1.8-2.78-2.47c-1.26-0.68-2.8-1.22-4.61-1.63c-1.81-0.41-3.86-0.61-6.16-0.61
		c-3.16,0-6.49,0.27-9.99,0.81c-3.5,0.54-8.28,1.58-14.33,3.12l1.76-9.69c0.41-1.94,0.99-5.67,1.76-11.18
		c11.88-1.99,23.01-2.98,33.4-2.98c4.74,0,9.28,0.43,13.62,1.29c4.33,0.86,8.22,2.31,11.65,4.37c3.43,2.06,6.01,4.45,7.72,7.18
		c1.72,2.73,2.57,5.68,2.57,8.84c0,2.08-0.25,4.13-0.75,6.16c-0.5,1.94-1.42,4.22-2.78,6.84c-1.72,3.25-3.84,6.46-6.37,9.62
		c-3.75,4.74-8.08,9.64-13.01,14.7c-4.7,4.79-10.34,10.16-16.93,16.12l7.45,0.07c1.76,0,5.25-0.04,10.47-0.14
		c5.22-0.09,8.84-0.18,10.87-0.27c2.03-0.09,4.54-0.29,7.52-0.61c-0.14,2.17-0.35,4.88-0.64,8.13c-0.29,3.25-0.6,7.23-0.91,11.92
		c-11.25-0.09-23.01-0.14-35.29-0.14C276.59,389.34,264.06,389.39,253.81,389.48z"/>
</g>
</svg>
