<?xml version="1.0" encoding="utf-8"?>
<!-- Generator: Adobe Illustrator 26.0.1, SVG Export Plug-In . SVG Version: 6.00 Build 0)  -->
<svg version="1.1" id="Layer_1" xmlns="http://www.w3.org/2000/svg" xmlns:xlink="http://www.w3.org/1999/xlink" x="0px" y="0px"
	 viewBox="0 0 1000 1100" style="enable-background:new 0 0 1000 1100;" xml:space="preserve">
<style type="text/css">
	.st0{fill:#6769AE;}
	.st1{fill:#FBBB24;}
	.st2{fill:#FABB24;}
	.st3{fill:#F9BA20;}
	.st4{fill:#6668AE;}
	.st5{fill:none;stroke:#6668AE;stroke-miterlimit:10;}
	.st6{fill:none;stroke:#6668AE;stroke-width:4;stroke-miterlimit:10;}
	.st7{fill:none;stroke:#6668AE;stroke-width:5;stroke-miterlimit:10;}
</style>
<polyline class="st0" points="42,61.8 81.5,76.9 146.5,0 92.7,0 "/>
<polygon class="st0" points="342.5,39.8 382.8,0 410.2,0 410.2,39.8 "/>
<polygon class="st1" points="864.4,30.5 895.2,0 1000,0 1000,31.3 "/>
<polygon class="st2" points="27.7,335.8 67.4,296.3 95.8,296.3 95.8,335.8 "/>
<polygon class="st1" points="0,1054 68.2,1054 68.2,1013.7 39.7,1013.7 "/>
<polygon class="st3" points="96.8,1083.2 329.3,1083.2 313.6,1100 113.3,1100 "/>
<polygon class="st0" points="658.7,1062.7 892.5,1062.7 855.1,1100 697.1,1100 "/>
<g>
	<path class="st4" d="M40.4,151c-0.3-4.9-0.6-10-1.2-15.3c4.7,1.5,8.4,2.6,11,3.1c2.7,0.6,5.3,0.8,7.8,0.8c2,0,4-0.3,5.9-0.8
		c1.7-0.5,3.2-1.1,4.4-1.9c0.9-0.6,1.7-1.4,2.4-2.1c0.9-1.1,1.7-2.4,2.3-3.9c0.6-1.6,1.1-3.7,1.4-6.3c0.5-3.5,0.9-9.4,1.2-17.5
		c0.2-6.4,0.5-13.6,0.7-21.5c0.2-6.7,0.2-13.7,0.2-21.1c5.1,0.1,8.4,0.1,9.9,0.1c1.7,0,5.2,0,10.3-0.1L95.1,92
		c-0.3,6.7-0.7,15.8-1.1,27.4c-0.3,8-0.7,13.4-1.3,16.3c-0.4,2.2-1.1,4.2-2,5.9c-0.8,1.6-1.8,2.9-3,4.1c-1.4,1.4-3.1,2.6-5.2,3.7
		c-2.6,1.4-5.4,2.5-8.4,3.2c-3.3,0.8-6.9,1.2-10.8,1.2C56.8,153.9,49.1,152.9,40.4,151z"/>
	<path class="st4" d="M122.5,64.3c5,0.1,8.3,0.1,10.1,0.1c2.2,0,5.4,0,9.8-0.1l-3,52c0,0.6-0.1,1.2-0.1,1.9c0,5.8,0.8,10.2,2.5,13.1
		s4.1,5.1,7.3,6.4c3.2,1.3,6.9,2,11,2c2.6,0,5.1-0.3,7.5-0.9c1.9-0.5,3.7-1.2,5.3-2.1c1.3-0.8,2.4-1.7,3.4-2.7
		c1.2-1.2,2.1-2.7,2.9-4.3c0.8-1.6,1.4-3.4,1.8-5.4c0.6-3.1,1.1-8.4,1.6-15.9l1.4-22.4c0.3-6.5,0.5-13.7,0.7-21.6
		c4.9,0.1,8.4,0.1,10.8,0.1l9.4-0.1l-2,31.1l-1.3,24.7c-0.4,5.8-1,10.1-1.8,12.9c-0.7,2.4-1.6,4.6-2.9,6.6c-1.2,1.8-2.6,3.4-4.3,4.8
		c-2.1,1.9-4.7,3.4-7.5,4.8c-3.2,1.5-6.6,2.6-10.2,3.3c-5,0.9-10.1,1.4-15.4,1.4c-5.4,0-10.5-0.5-15.2-1.5c-4-0.9-7.8-2.2-11.1-4
		c-3.4-1.8-6.1-3.8-8-6.1c-1.6-1.8-2.9-4.1-3.8-6.8c-1.1-3-1.6-6.4-1.6-10.1c0-1.3,0-2.9,0.1-5c0.1-2,0.2-4.7,0.5-7.9l0.6-9.1
		c0.2-2.8,0.5-7,0.7-12.5l0.7-14C122.2,73.2,122.4,69,122.5,64.3z"/>
	<path class="st4" d="M276.6,102c5.9,0.1,11.6,0.1,17,0.1c7.1,0,13,0,17.7-0.1c-1.1,14.4-1.9,30.4-2.4,48c-7.1,1.4-13.6,2.4-19.3,3
		s-10.6,0.9-14.7,0.9c-7.6,0-14.6-0.8-21-2.4c-6.5-1.6-11.9-4.2-16.4-7.7c-4.5-3.6-7.9-8.3-10.2-14.1c-2.3-5.8-3.5-12-3.5-18.5
		c0-5.5,0.9-10.9,2.6-16.1s4.3-9.9,7.7-14.2c3.4-4.3,7.5-7.9,12.4-10.7c4.8-2.9,10-4.8,15.4-5.9c5.4-1.1,11.2-1.6,17.2-1.6
		c8.3,0,17.9,1.1,28.8,3.3c0,4.9,0.3,10,0.7,15.3c-10.1-3.4-19.3-5.1-27.5-5.1c-5.3,0-10.3,0.8-15,2.3c-4.7,1.5-8.8,3.8-12.2,7
		s-6,7.1-7.8,11.7c-1.8,4.7-2.7,9.5-2.7,14.5c0,5.5,1,10.5,3.1,14.9s5.5,7.8,10.3,10.1c4.8,2.4,10.3,3.6,16.6,3.6
		c2.3,0,5-0.2,8.1-0.6c3.1-0.4,6.3-1.1,9.7-2.1l1.1-22.6l-5.1-0.1c-2.9,0-6.5,0.1-11,0.2C276.4,109.5,276.6,105.1,276.6,102z"/>
	<path class="st4" d="M334.2,152.3l1.9-24.7l1.4-28.6l0.8-26v-8.8c10.6,0.1,21.7,0.1,33.2,0.1l12.4-0.1l18.6-0.1l-0.8,13.9l-6.1-0.3
		c-1.7-0.1-4-0.2-7-0.2s-6-0.1-9.1-0.1c-6.7,0-11,0-13,0s-4.9,0.1-8.9,0.2l-1,22.9c5.9,0.1,11.8,0.2,17.8,0.2
		c4.1,0,11.1-0.1,20.9-0.4c-0.3,3.9-0.6,8.6-0.9,14.1c-11.5-0.1-18-0.2-19.7-0.2c-5.1,0-11.4,0.1-19,0.4l-1,24.1l7.1,0.1
		c2.1,0,6.8,0,14.2-0.1l14-0.3l9.4-0.4c-0.4,5-0.7,9.7-0.9,14.1c-11.2-0.1-21.2-0.1-30.2-0.1l-21.2,0.1L334.2,152.3z"/>
	<path class="st4" d="M422.6,152.3c0.8-7.7,1.4-16.3,1.9-25.9l1.5-31.6c0.5-11.4,0.8-21.6,0.8-30.5c5,0.1,9.2,0.1,12.7,0.1
		c2.6,0,6.3,0,11.3-0.1c4.9,8.5,11.6,19.5,20.1,33.1s15.5,24.9,20.7,33.8l2.4-59.8c0-1.4,0.1-3.8,0.1-7.2c4,0.1,7.1,0.1,9.2,0.1
		c0.8,0,3.8,0,9-0.1L510.6,88l-2,40.5l-0.8,23.9c-4.5-0.1-8.3-0.1-11.4-0.1c-2.5,0-6.5,0-12.1,0.1c-2.1-3.8-3.8-6.7-4.9-8.5
		c-1.8-2.8-5.5-8.7-11.3-17.5c-3.8-5.8-8.5-13.3-14.2-22.4c-4.2-6.7-7.7-12.6-10.7-17.5c-0.3,7-0.9,19.9-1.6,38.7
		c-0.3,7.7-0.5,16.8-0.7,27.3c-4-0.1-7-0.1-8.8-0.1C430.7,152.2,427.5,152.2,422.6,152.3z"/>
	<path class="st4" d="M534.3,152.3l1.7-22.4l1.3-28l0.8-27.9c0-1.2,0.1-4.4,0.1-9.6c4.8,0.1,9.3,0.1,13.5,0.1
		c3.1,0,7.3-0.1,12.4-0.2c5.1-0.1,9.6-0.2,13.3-0.2c5.1,0,9.8,0.3,14.1,0.9c4.3,0.6,8.1,1.7,11.3,3.4c3.2,1.7,6,3.7,8.4,6.2
		s4.3,5.2,5.8,8.3s2.7,6.4,3.5,10.1c0.8,3.7,1.2,7.5,1.2,11.4c0,7.4-1.3,14.4-3.8,21.1c-2.6,6.7-6.4,12.2-11.4,16.6
		s-10.7,7.2-16.8,8.4c-6.2,1.2-13.2,1.9-21,1.9l-21.9-0.1C545.3,152.2,541.2,152.2,534.3,152.3z M554.1,138.6
		c3.5,0.2,7,0.3,10.4,0.3c3.9,0,7.5-0.2,10.9-0.6c3.3-0.4,6.2-1,8.6-1.8s4.8-2.3,7.2-4.4c2.4-2.1,4.4-4.5,6-7.3s2.7-5.9,3.5-9.2
		c0.8-3.4,1.2-6.8,1.2-10.4c0-6.4-1.1-11.7-3.3-15.9s-5.1-7.1-8.7-9c-3.6-1.8-9.1-2.7-16.6-2.7c-4.9,0-10.4,0.1-16.7,0.3
		L554.1,138.6z"/>
	<path class="st4" d="M49.8,274.3c0.8-8.4,1.3-15.2,1.6-20.3c0.5-8.5,1-20.8,1.5-36.7c0.4-11.8,0.6-20.1,0.6-24.9v-6
		c12.3,0.1,23.1,0.1,32.3,0.1l18-0.1l10.8-0.1c-0.5,6.4-0.7,11-0.8,13.9l-9.2-0.3l-3.7-0.1h-5H86l-13.3,0.1l-0.8,23.1l11,0.2
		c8.3,0,13.7,0,16-0.1l8.8-0.1c-0.3,5-0.5,9.5-0.6,13.7c-7.5-0.2-13.4-0.3-17.8-0.3c-5.6,0-11.6,0.1-18.1,0.3l-0.7,28.5l-0.1,5.8
		v3.3l-9.9-0.1C60,274.2,56.4,274.2,49.8,274.3z"/>
	<path class="st4" d="M132.8,274.3l1.9-24.7l1.4-28.6l0.8-26v-8.8c10.6,0.1,21.7,0.1,33.2,0.1l12.4-0.1l18.6-0.1l-0.8,13.9l-6.1-0.3
		c-1.7-0.1-4-0.1-7-0.2c-3,0-6-0.1-9.1-0.1c-6.7,0-11,0-13,0s-4.9,0.1-8.9,0.2l-1.1,22.9c5.9,0.1,11.8,0.2,17.8,0.2
		c4.1,0,11.1-0.1,20.9-0.4c-0.3,3.9-0.6,8.6-0.9,14.1c-11.5-0.1-18-0.2-19.7-0.2c-5.1,0-11.4,0.1-18.9,0.4l-1.1,24.1l7.1,0.1
		c2.1,0,6.8,0,14.2-0.1l14-0.3l9.4-0.5c-0.4,5-0.7,9.7-0.9,14.1c-11.2-0.1-21.2-0.1-30.2-0.1l-21.2,0.1L132.8,274.3z"/>
	<path class="st4" d="M219.1,272.4c-0.3-6.5-0.8-11.9-1.4-16c8.4,3.8,16.1,5.7,22.9,5.7c2.8,0,5.3-0.4,7.7-1.3s4.1-2,5.3-3.5
		c1.1-1.5,1.7-3.2,1.7-5.1c0-1.5-0.3-2.8-0.8-3.9c-0.8-1.6-2.2-3.2-4.1-5c-2.5-2.4-6.8-6.2-13.1-11.7c-3-2.6-5.1-4.5-6.2-5.6
		c-2.6-2.4-4.6-4.6-5.9-6.6c-1.4-1.9-2.4-3.9-3-5.8c-0.6-1.9-0.9-4-0.9-6.2c0-4,1.1-7.8,3.4-11.4s5.6-6.3,10.1-8.3
		c4.5-2,10.1-3,17-3c6.1,0,13.1,0.8,20.8,2.3c0.2,4.5,0.6,9.6,1.3,15.3c-6.7-2.6-12.9-3.9-18.5-3.9c-4.2,0-7.6,1-10.3,2.9
		c-2.7,1.9-4,4.1-4,6.7c0,0.7,0.1,1.4,0.3,2.2s0.5,1.5,0.8,2.2s1,1.6,2,2.8s2.4,2.5,4.2,4s3.4,2.8,4.7,3.7l7.9,7.2
		c2,1.7,3.8,3.3,5.4,4.9c1.6,1.6,3,3.1,4.1,4.6c1.1,1.5,2,2.9,2.7,4.2s1.1,2.7,1.5,4.1c0.3,1.4,0.5,2.9,0.5,4.4
		c0,3.6-0.8,7-2.5,10.2c-1.7,3.2-4.1,5.8-7.2,7.9c-3.1,2.1-6.6,3.5-10.3,4.3s-7.7,1.2-11.9,1.2c-2.8,0-5.9-0.2-9.6-0.7
		C229.9,274.7,225,273.8,219.1,272.4z"/>
	<path class="st4" d="M315.5,274.3l1.4-18.8l1.4-28l0.9-27.6h-4.5l-4.2,0.1l-4,0.1l-14.9,0.4c0.3-6.2,0.5-10.9,0.6-14.1
		c12.4,0.1,25.3,0.1,38.9,0.1l23.1-0.1l12.4-0.1c-0.4,6.1-0.6,10.8-0.6,14.1c-7.8-0.4-15.2-0.6-22.4-0.6h-5l-0.8,11.8l-1.9,45.3
		l-0.1,7.6c0,3.1-0.1,6.4-0.1,9.8l-9.8-0.1C325,274.2,321.5,274.2,315.5,274.3z"/>
</g>
<g>
	<path class="st4" d="M114,748.7c7.3,0.1,14.2,0.2,20.8,0.2c11.3,0,20.1,0,26.4-0.2c-0.7,7.3-1.4,17.6-2.1,30.9
		c-0.7,13.3-1.1,23.4-1.3,30.2c-6.1,1.1-11.2,1.9-15.2,2.4s-8.8,1-14.5,1.3s-10.7,0.6-15.1,0.6c-7.2,0-14.3-0.6-21.3-1.8
		c-7-1.2-13.2-3-18.7-5.7c-5.5-2.6-10.1-6.1-13.7-10.6c-3.7-4.5-6.5-9.8-8.5-15.8c-2-6.1-3-12.4-3-19c0-10.8,2.7-20.8,8-30
		c5.4-9.2,13.1-16.6,23.1-22s23.1-8.1,39-8.1c11.6,0,24.5,1.4,38.6,4.2c0,7.8,0.3,16.4,1,25.9c-3.8-1.3-6.9-2.2-9.3-2.9
		c-2.4-0.7-5.1-1.3-8.3-1.8c-3.2-0.6-6.2-1-9-1.2c-2.8-0.3-5.4-0.4-7.6-0.4c-5.8,0-11.4,0.8-16.6,2.5c-5.2,1.7-9.7,4.2-13.4,7.7
		s-6.6,7.6-8.4,12.5c-1.9,4.8-2.8,9.9-2.8,15.3c0,5.5,1.1,10.3,3.2,14.6c2.1,4.3,5.5,7.5,10.1,9.8s9.8,3.3,15.4,3.3
		c4.7,0,9.9-0.7,15.5-2.1l0.9-17.3c-3.5-0.2-5.5-0.2-6.2-0.2l-8.5,0.1l0.6-9.8c0.1-1.1,0.1-2.6,0.2-4.6
		C113.9,754.9,114,752.2,114,748.7z"/>
	<path class="st4" d="M178.7,780.9c0.6-7.7,1-15.1,1.2-22.2c7.5,0.2,14.7,0.3,21.4,0.3c6.8,0,13.9-0.1,21.4-0.3
		c-0.6,6.9-1,14.3-1.2,22.2c-7.5-0.2-14.7-0.2-21.4-0.2C193.3,780.7,186.2,780.8,178.7,780.9z"/>
	<path class="st4" d="M240.1,812.1c1.3-13.7,2.3-25.2,2.9-34.4c0.6-9.2,1.2-21.5,1.8-36.8c0.6-15.3,0.9-25.5,0.9-30.5l-0.1-7
		c12.5,0.1,27.7,0.2,45.5,0.2c16.4,0,30.9,0,43.4-0.2l-0.2,2.6c0,0.6-0.2,2.9-0.4,6.9l-0.5,8.7c-0.1,1.8-0.2,3.7-0.2,5.6
		c-10.2-0.4-18.9-0.6-25.8-0.6c-7.6,0-12.8,0-15.5,0c-2.7,0-6.9,0.2-12.5,0.4l-1,18.3c6.3,0.2,13.6,0.2,21.9,0.2
		c3,0,10.9-0.2,23.8-0.6c-0.5,6.8-1,14.9-1.5,24.3c-9.2-0.1-16.2-0.2-21.2-0.2c-7.3,0-15.5,0.2-24.6,0.6l-1,19.4h9.1
		c2.7,0,8.3-0.1,16.8-0.2l16.5-0.4c2.4,0,6.5-0.3,12.3-0.6c-0.6,7.9-1.2,16-1.6,24.4c-13-0.1-27.2-0.2-42.6-0.2l-35.1,0.1
		L240.1,812.1z"/>
	<path class="st4" d="M343,812.1l6.6-11.5l41.2-77.6l4.4-8.7c1.3-2.5,3-6.2,5.3-11c9.4,0.1,16.2,0.2,20.5,0.2c7.5,0,14.4,0,20.8-0.2
		l11.6,33.2l23.6,63.9l4.6,11.6c-9.2-0.1-14.8-0.2-16.8-0.2c-4.5,0-11,0-19.7,0.2c-2.3-8.8-5.7-19.1-10.1-30.9h-40.1
		c-4.6,9.3-9.4,19.7-14.3,30.9c-9.9-0.1-16-0.2-18.2-0.2C358.5,812,352,812,343,812.1z M404.7,758.1h24.7
		c-6.1-18.7-9.5-29-10.1-30.9c-3.5,7.8-6.5,14.2-8.9,19.2L404.7,758.1z"/>
	<path class="st4" d="M495,812.1c0.6-10.9,1-19,1-24.2l4.7-4.6c0.6-0.6,5.5-5.9,14.7-15.8l26.4-28.6c3.1-3.5,6.7-7.6,10.8-12.3
		l-6.3-0.1l-6.3-0.1h-11.1c-8.4,0-17.2,0.3-26.6,0.9c0.5-5.7,0.7-12,0.7-18.6c0-1.3,0-3-0.2-5.2c15.1,0.1,31.1,0.2,48,0.2
		c17.5,0,32.6,0,45.3-0.2c-0.4,5.6-0.6,10-0.7,13.2l-0.3,10.7l-4.5,4.4c-0.7,0.7-1.5,1.5-2.2,2.3l-49.8,54.6l10.9,0.1
		c2.6,0,6.4,0,11.3-0.1l22-0.5c1.7,0,4.5-0.2,8.7-0.4c-0.6,9.5-1,17.6-1.2,24.5c-16.9-0.1-32.3-0.2-46.1-0.2H526l-20.5,0.1
		L495,812.1z"/>
	<path class="st4" d="M641.1,812.1c0.5-4.3,1.2-11.6,1.9-21.9c0.7-10.3,1.1-17.6,1.1-21.8l-36.5-65c8,0.1,14.6,0.2,19.8,0.2
		c5,0,11,0,17.9-0.2c2.1,5.3,5,11.6,8.6,19s6.6,13.9,8.9,19.7c6.1-10.8,11-19.2,14.7-25.2c3.7-6,6.4-10.5,8-13.5
		c6.8,0.1,13.2,0.2,19.5,0.2c3.3,0,9.3,0,18-0.2l-35,51.5c-7,10.3-10.4,15.7-10.4,16.2l-0.1,0.8v0.8l-0.1,0.8l-0.6,12.1
		c-0.4,8-0.7,16.9-0.9,26.5c-7.5-0.1-13.3-0.2-17.4-0.2C654.4,812,648.6,812,641.1,812.1z"/>
</g>
<g>
	<path class="st5" d="M116.8,873.3c7.3,0.1,14.2,0.2,20.8,0.2c11.3,0,20.1,0,26.4-0.2c-0.7,7.3-1.4,17.6-2.1,30.9
		c-0.7,13.3-1.1,23.4-1.3,30.2c-6.1,1.1-11.2,1.9-15.2,2.4c-4,0.5-8.8,1-14.5,1.3s-10.7,0.6-15.1,0.6c-7.2,0-14.3-0.6-21.3-1.8
		c-7-1.2-13.2-3-18.7-5.7c-5.5-2.6-10.1-6.1-13.7-10.6c-3.7-4.5-6.5-9.8-8.5-15.8c-2-6.1-3-12.4-3-19c0-10.8,2.7-20.8,8-30
		c5.4-9.2,13.1-16.6,23.1-22s23.1-8.1,39-8.1c11.6,0,24.5,1.4,38.6,4.2c0,7.8,0.3,16.4,1,25.9c-3.8-1.3-6.9-2.2-9.3-2.9
		c-2.4-0.7-5.1-1.3-8.3-1.8c-3.2-0.6-6.2-1-9-1.2c-2.8-0.3-5.4-0.4-7.6-0.4c-5.8,0-11.4,0.8-16.6,2.5c-5.2,1.7-9.7,4.2-13.4,7.7
		s-6.6,7.6-8.4,12.5c-1.9,4.8-2.8,9.9-2.8,15.3c0,5.5,1.1,10.3,3.2,14.6c2.1,4.3,5.5,7.5,10.1,9.8s9.8,3.3,15.4,3.3
		c4.7,0,9.9-0.7,15.5-2.1l0.9-17.3c-3.5-0.2-5.5-0.2-6.2-0.2l-8.5,0.1l0.6-9.8c0.1-1.1,0.1-2.6,0.2-4.6
		C116.8,879.4,116.8,876.7,116.8,873.3z"/>
	<path class="st5" d="M181.6,905.5c0.6-7.7,1-15.1,1.2-22.2c7.5,0.2,14.7,0.3,21.4,0.3c6.8,0,13.9-0.1,21.4-0.3
		c-0.6,6.9-1,14.3-1.2,22.2c-7.5-0.2-14.7-0.2-21.4-0.2C196.2,905.2,189.1,905.3,181.6,905.5z"/>
	<path class="st5" d="M242.9,936.7c1.3-13.7,2.3-25.2,2.9-34.4c0.6-9.2,1.2-21.5,1.8-36.8c0.6-15.3,0.9-25.5,0.9-30.5l-0.1-7
		c12.5,0.1,27.7,0.2,45.5,0.2c16.4,0,30.9,0,43.4-0.2l-0.2,2.6c0,0.6-0.2,2.9-0.4,6.9l-0.5,8.7c-0.1,1.8-0.2,3.7-0.2,5.6
		c-10.2-0.4-18.9-0.6-25.8-0.6c-7.6,0-12.8,0-15.5,0c-2.7,0-6.9,0.2-12.5,0.4l-1,18.3c6.3,0.2,13.6,0.2,21.9,0.2
		c3,0,10.9-0.2,23.8-0.6c-0.5,6.8-1,14.9-1.5,24.3c-9.2-0.1-16.2-0.2-21.2-0.2c-7.3,0-15.5,0.2-24.6,0.6l-1,19.4h9.1
		c2.7,0,8.3-0.1,16.8-0.2l16.5-0.4c2.4,0,6.5-0.3,12.3-0.6c-0.6,7.9-1.2,16-1.6,24.4c-13-0.1-27.2-0.2-42.6-0.2l-35.1,0.1
		L242.9,936.7z"/>
	<path class="st5" d="M345.9,936.7l6.6-11.5l41.2-77.6l4.4-8.7c1.3-2.5,3-6.2,5.3-11c9.4,0.1,16.2,0.2,20.5,0.2
		c7.5,0,14.4,0,20.8-0.2l11.6,33.2l23.6,63.9l4.6,11.6c-9.2-0.1-14.8-0.2-16.8-0.2c-4.5,0-11,0-19.7,0.2
		c-2.3-8.8-5.7-19.1-10.1-30.9H398c-4.6,9.3-9.4,19.7-14.3,30.9c-9.9-0.1-16-0.2-18.2-0.2C361.4,936.5,354.9,936.6,345.9,936.7z
		 M407.6,882.6h24.7c-6.1-18.7-9.5-29-10.1-30.9c-3.5,7.8-6.5,14.2-8.9,19.2L407.6,882.6z"/>
	<path class="st5" d="M497.9,936.7c0.6-10.9,1-19,1-24.2l4.7-4.6c0.6-0.6,5.5-5.9,14.7-15.8l26.4-28.6c3.1-3.5,6.7-7.6,10.8-12.3
		l-6.3-0.1l-6.3-0.1h-11.1c-8.4,0-17.2,0.3-26.6,0.9c0.5-5.7,0.7-12,0.7-18.6c0-1.3,0-3-0.2-5.2c15.1,0.1,31.1,0.2,48,0.2
		c17.5,0,32.6,0,45.3-0.2c-0.4,5.6-0.6,10-0.7,13.2l-0.3,10.7l-4.5,4.4c-0.7,0.7-1.5,1.5-2.2,2.3l-49.8,54.6l10.9,0.1
		c2.6,0,6.4,0,11.3-0.1l22-0.5c1.7,0,4.5-0.2,8.7-0.4c-0.6,9.5-1,17.6-1.2,24.5c-16.9-0.1-32.3-0.2-46.1-0.2h-18.2l-20.5,0.1
		L497.9,936.7z"/>
	<path class="st5" d="M644,936.7c0.5-4.3,1.2-11.6,1.9-21.9c0.7-10.3,1.1-17.6,1.1-21.8l-36.5-65c8,0.1,14.6,0.2,19.8,0.2
		c5,0,11,0,17.9-0.2c2.1,5.3,5,11.6,8.6,19s6.6,13.9,8.9,19.7c6.1-10.8,11-19.2,14.7-25.2c3.7-6,6.4-10.5,8-13.5
		c6.8,0.1,13.2,0.2,19.5,0.2c3.3,0,9.3,0,18-0.2l-35,51.5c-7,10.3-10.4,15.7-10.4,16.2l-0.1,0.8v0.8l-0.1,0.8l-0.6,12.1
		c-0.4,8-0.7,16.9-0.9,26.5c-7.5-0.1-13.3-0.2-17.4-0.2C657.3,936.5,651.5,936.6,644,936.7z"/>
</g>
<g>
	<path class="st4" d="M948.5,1063.7c-5,0.3-10,0.6-14.8,1c1.3-3.3,2.1-6,2.6-8.1s0.7-4,0.7-5.7c0-2-0.3-3.8-1.1-5.3
		c-0.6-1.2-1.3-2.1-2.2-2.8c-1.2-0.9-2.7-1.5-4.3-1.9c-3-0.6-8.2-1-15.6-1.3s-13.8-0.4-19.2-0.4h-5.2c0.1-4.7,0.1-7.9,0.1-9.4
		c0-1.9,0-5.3-0.1-10l19.6,1.3c5.8,0.3,12,0.6,18.5,0.7c5,0.1,8.5,0.4,10.3,0.8c1.7,0.3,3.1,0.9,4.2,1.5c1.1,0.6,2.1,1.3,2.9,2.2
		c1,1.1,1.9,2.4,2.7,3.9c1.1,2.1,1.9,4.3,2.4,6.6c0.6,2.6,0.9,5.3,0.9,8.2C951,1050.5,950.2,1056.7,948.5,1063.7z"/>
	<path class="st4" d="M889.5,1003.5c0.1-4.6,0.1-7.8,0.1-9.7c0-2.4,0-5.5-0.1-9.4l18.8,1.3c3.5,0.3,6.9,0.5,10,0.6s5.2,0.2,6.4,0.2
		c2.2,0,4.1-0.2,5.6-0.5c1.5-0.3,2.8-0.9,3.8-1.8c1-0.9,1.8-2,2.4-3.6c0.5-1.5,0.8-3.1,0.8-4.8c0-1.4-0.2-2.8-0.6-4
		c-0.3-1-0.8-1.8-1.3-2.6c-0.5-0.7-1.1-1.3-1.8-1.8c-0.8-0.6-1.9-1.2-3.2-1.6c-1.2-0.5-2.7-0.8-4.6-1.1c-1.9-0.3-6.3-0.6-13.2-1.1
		c-5.8-0.4-11.2-0.7-16-0.9c-4.7-0.2-7.1-0.3-7.1-0.5c0-4.5,0-8,0-10.5v-9l31.5,2.2c0.6,0,1.1,0,1.5,0c6.1,0.1,10.5,0.5,13,1.1
		s4.7,1.7,6.6,3.2c1.9,1.5,3.5,3.6,5,6.5c1.5,2.8,2.5,6.1,3.2,9.7s0.9,7.2,0.9,11c0,3.3-0.2,6.5-0.7,9.6c-0.5,2.8-1.2,5.4-2.1,7.7
		c-0.9,2.3-2,4.2-3.2,5.9c-1.1,1.5-2.3,2.7-3.4,3.5c-1.2,0.8-2.6,1.5-4.2,2c-1.8,0.5-3.8,0.8-5.9,0.8c-0.7,0-1.8,0-3.2-0.1
		s-3.5-0.2-6.2-0.4l-7.1-0.6c-1.9-0.2-4.6-0.3-8.2-0.5L889.5,1003.5z"/>
	<path class="st4" d="M914.7,894.7c0.1-4,0.1-7.9,0.1-11.6c0-6.3,0-11.2-0.1-14.7c4,0.4,9.8,0.8,17.2,1.2c7.4,0.4,13,0.6,16.8,0.7
		c0.6,3.4,1.1,6.2,1.3,8.4c0.3,2.2,0.5,4.9,0.8,8s0.3,5.9,0.3,8.4c0,4-0.3,8-1,11.8c-0.7,3.9-1.7,7.3-3.2,10.4s-3.4,5.6-5.9,7.6
		c-2.5,2-5.4,3.6-8.8,4.7s-6.9,1.7-10.5,1.7c-6,0-11.6-1.5-16.7-4.5s-9.2-7.3-12.2-12.9s-4.5-12.8-4.5-21.7c0-6.5,0.8-13.6,2.3-21.5
		c4.3,0,9.1-0.2,14.4-0.6c-0.7,2.1-1.2,3.8-1.6,5.2s-0.7,2.8-1,4.6s-0.5,3.4-0.7,5s-0.2,3-0.2,4.2c0,3.2,0.5,6.3,1.4,9.2
		c0.9,2.9,2.4,5.4,4.3,7.5c1.9,2.1,4.2,3.6,6.9,4.7c2.7,1,5.5,1.5,8.5,1.5c3,0,5.8-0.6,8.1-1.8s4.2-3.1,5.4-5.6s1.9-5.4,1.9-8.6
		c0-2.6-0.4-5.5-1.2-8.6l-9.6-0.5c-0.1,1.9-0.1,3.1-0.1,3.4l0,4.7l-5.5-0.3c-0.6,0-1.4-0.1-2.5-0.1
		C918.1,894.7,916.6,894.7,914.7,894.7z"/>
	<path class="st4" d="M949.9,854.1c-7.6-0.7-14-1.3-19.1-1.6c-5.1-0.3-12-0.7-20.5-1s-14.2-0.5-17-0.5l-3.9,0
		c0.1-7,0.1-15.4,0.1-25.3c0-9.1,0-17.2-0.1-24.1l1.5,0.1c0.3,0,1.6,0.1,3.8,0.2l4.8,0.3c1,0.1,2.1,0.1,3.1,0.1
		c-0.2,5.7-0.3,10.5-0.3,14.4c0,4.2,0,7.1,0,8.6c0,1.5,0.1,3.8,0.2,7l10.2,0.5c0.1-3.5,0.1-7.5,0.1-12.2c0-1.7-0.1-6.1-0.3-13.2
		c3.8,0.3,8.3,0.6,13.5,0.8c-0.1,5.1-0.1,9-0.1,11.8c0,4.1,0.1,8.6,0.3,13.7l10.8,0.5v-5.1c0-1.5,0-4.6-0.1-9.3l-0.2-9.2
		c0-1.4-0.2-3.6-0.3-6.8c4.4,0.3,8.9,0.7,13.6,0.9c-0.1,7.2-0.1,15.1-0.1,23.7l0,19.5L949.9,854.1z"/>
	<path class="st4" d="M949.9,788.9l-9.3-0.9l-31.5-1.7l-12.7-0.5h-6.9c0.1-4.6,0.1-8.6,0.1-12.2c0-2.5,0-6-0.1-10.6l34.4-18.9l5-2.6
		c-5-0.3-11.9-0.7-20.9-1s-15.1-0.5-18.6-0.5c0.1-3.6,0.1-6.5,0.1-8.7c0-1,0-3.9-0.1-8.7l13.2,1.1l36.7,2l10.6,0.3
		c-0.1,3.8-0.1,7.4-0.1,10.8c0,2.8,0,6.6,0.1,11.5c-2.9,1.5-5,2.7-6.3,3.4L931,759c-4.1,2.5-8.1,4.7-11.9,6.8
		c-2.4,1.4-5,2.8-7.9,4.2l21,1l17.7,0.5c-0.1,3.7-0.1,6.5-0.1,8.4C949.8,781.4,949.9,784.4,949.9,788.9z"/>
	<path class="st4" d="M949.9,709c-6.7-0.7-12.1-1.1-16.2-1.3c-6-0.4-13.8-0.7-23.4-1.1c-7.3-0.3-12.6-0.4-15.7-0.4h-5.2
		c0.1-3.5,0.1-6.4,0.1-9c0-2.4-0.1-5.6-0.2-9.5c-0.1-3.9-0.2-7.6-0.2-11.1c0-4,0.2-7.4,0.7-10.4s1.5-5.8,2.9-8.3
		c1.5-2.6,3.4-4.8,5.8-6.5s5.2-3.1,8.4-4s6.5-1.4,9.9-1.4c3.3,0,6.5,0.3,9.6,1.1s5.9,1.7,8.3,3c2.5,1.3,4.6,2.8,6.4,4.5
		c1.8,1.7,3.3,3.6,4.6,5.8c1,1.6,1.7,3.3,2.2,4.9c0.5,1.7,1,3.9,1.3,6.8c0.3,3.2,0.5,6.8,0.5,10.8l-0.1,17.9
		C949.8,702.5,949.8,705.2,949.9,709z M936.6,689.8c0.2-1.6,0.2-3.3,0.2-5.1c0-3-0.3-5.7-0.8-8.1c-0.5-2.4-1.7-4.4-3.4-6.2
		s-4-3.1-6.7-4c-2.7-0.9-5.5-1.3-8.4-1.3c-3.5,0-6.5,0.6-8.9,1.9c-2.4,1.3-4.1,3-5,5.1s-1.4,5-1.4,8.6c0,2.1,0.1,4.6,0.3,7.5
		L936.6,689.8z"/>
	<path class="st4" d="M949.9,633.4c-6-0.6-10.8-1-14.4-1.3c-5.4-0.3-12.8-0.7-22.2-1c-9.4-0.3-15.7-0.5-19-0.5h-4.9
		c0.1-8.9,0.1-17.2,0.1-24.8c0-7.7,0-15.1-0.1-22.2c6.8,0.5,11.2,0.7,13.3,0.7l-0.1,3.8l0,3.1l0,3.1v8.7c0,1,0,3.9,0.1,8.8l10.3,0.4
		l0.1-6.4v-7.2c0-2.1,0-5.2-0.1-9.5c5.6,0.3,10,0.5,13.1,0.5c-0.2,4.8-0.2,8.3-0.2,10.6c0,3.9,0.1,8.1,0.2,12.7l16,0.5l5.9,0h2
		l-0.1,9.5C949.8,623.7,949.9,627.2,949.9,633.4z"/>
	<path class="st4" d="M949.9,572.6c-7.6-0.7-14-1.3-19.1-1.6c-5.1-0.3-12-0.7-20.5-1s-14.2-0.5-17-0.5l-3.9,0
		c0.1-7,0.1-15.4,0.1-25.3c0-9.1,0-17.2-0.1-24.1l1.5,0.1c0.3,0,1.6,0.1,3.8,0.2l4.8,0.3c1,0.1,2.1,0.1,3.1,0.1
		c-0.2,5.7-0.3,10.5-0.3,14.4c0,4.2,0,7.1,0,8.6c0,1.5,0.1,3.8,0.2,7l10.2,0.5c0.1-3.5,0.1-7.5,0.1-12.2c0-1.7-0.1-6.1-0.3-13.2
		c3.8,0.3,8.3,0.6,13.5,0.8c-0.1,5.1-0.1,9-0.1,11.8c0,4.1,0.1,8.6,0.3,13.7l10.8,0.5v-5.1c0-1.5,0-4.6-0.1-9.3l-0.2-9.2
		c0-1.4-0.2-3.6-0.3-6.8c4.4,0.3,8.9,0.7,13.6,0.9c-0.1,7.2-0.1,15.1-0.1,23.7l0,19.5L949.9,572.6z"/>
	<path class="st4" d="M949,507.9c-6.3,0.4-11.3,0.8-15.1,1.3c1.5-3.3,2.5-6.3,3.1-8.9c0.6-2.6,0.9-4.9,0.9-6.8
		c0-2.6-0.4-4.6-1.1-6.1c-0.8-1.5-1.9-2.3-3.3-2.3c-0.5,0-1,0.1-1.4,0.2s-1,0.4-1.5,0.8c-0.6,0.4-1.2,1-1.9,1.8l-7.3,8.4
		c-1.7,2-2.8,3.3-3.6,4.1c-1.5,1.6-2.9,2.8-4.2,3.7c-1.3,0.9-2.6,1.5-4,1.9c-1.3,0.4-2.8,0.6-4.3,0.6c-1.8,0-3.6-0.3-5.3-1
		c-1.7-0.6-3.3-1.6-4.8-2.9c-1.5-1.3-2.8-3-3.9-5c-1.1-2.1-1.8-4.3-2.2-6.7s-0.6-4.9-0.6-7.4c0-5,0.6-10.4,1.7-16.3
		c2-0.1,3.9-0.2,5.6-0.3c1.7-0.1,4.7-0.4,8.9-0.8c-1.1,2.7-1.8,5.2-2.3,7.4c-0.4,2.2-0.6,4.2-0.6,5.8c0,2.3,0.4,4.2,1.3,5.7
		s1.9,2.3,3.2,2.3c0.6,0,1.2-0.1,1.7-0.4c0.6-0.2,1.2-0.7,2-1.3s1.6-1.5,2.5-2.6c0.9-1.1,2.2-2.7,4-5l2.5-3.2c0.8-0.9,1.7-2,2.8-3.1
		c1.1-1.1,2.2-2,3.2-2.8s2-1.4,2.9-1.8c0.9-0.4,1.8-0.8,2.7-1c0.9-0.2,1.9-0.3,2.9-0.3c2.7,0,5.2,0.6,7.6,1.9s4.4,3.1,5.9,5.4
		c1.5,2.3,2.6,4.9,3.3,7.7s0.9,5.7,0.9,8.8C951.1,494.5,950.4,500.6,949,507.9z"/>
	<path class="st4" d="M949.9,438.4c-14.3-1.5-30.2-2.4-47.4-2.6l0.5,18.9l-4.9-0.2c-2.6-0.1-5.5-0.2-8.6-0.3
		c0.1-8.4,0.1-18.2,0.1-29.3l0-10.9v-10.6l0-5.8l4.3,0.3c2.3,0.1,4.2,0.2,5.8,0.2c1.5,0,2.7,0.1,3.5,0.1c-0.3,6.3-0.5,11.5-0.5,15.6
		v3.1c5.2,0.5,10,0.8,14.5,1c6.3,0.3,12.5,0.6,18.5,0.8c6,0.2,10.8,0.3,14.5,0.3c-0.1,4.8-0.1,8-0.1,9.4
		C949.8,429.5,949.9,432.8,949.9,438.4z"/>
</g>
<g>
	<path class="st6" d="M903.5,232.2l-11.1-6.8c-1-0.6-4.6-2.7-10.8-6.3l0.1-5.3c0-0.5,0-2.3-0.1-5.3l6.4,2.1c1.6,0.6,3.8,1.3,6.5,2.1
		l9,2.9l-0.1,7.6C903.3,223.8,903.4,226.9,903.5,232.2z"/>
	<path class="st6" d="M958.2,198.7c-1.8-0.1-4.1-0.3-7-0.4c-2.9-0.1-5.9-0.2-8.9-0.4c-3.2-3.9-6.3-7.5-9.3-10.7
		c-4.9-5.3-9.4-9.9-13.7-14c-3.4-3.2-6.5-6-9.4-8.2c-1.7-1.3-3.1-2.1-4.2-2.5c-0.8-0.3-1.6-0.4-2.4-0.4c-1.1,0-2,0.2-2.8,0.7
		c-0.8,0.5-1.5,1.2-2,2.3s-1,2.3-1.3,3.8c-0.3,1.5-0.5,3.2-0.5,5.1c0,2.6,0.2,5.4,0.7,8.3s1.3,6.9,2.6,11.9l-8-1.5
		c-1.6-0.3-4.7-0.8-9.3-1.5c-1.7-9.8-2.5-19.1-2.5-27.7c0-3.9,0.4-7.7,1.1-11.3s1.9-6.8,3.6-9.6s3.7-5,6-6.4
		c2.3-1.4,4.7-2.1,7.3-2.1c1.7,0,3.4,0.2,5.1,0.6c1.6,0.4,3.5,1.2,5.7,2.3c2.7,1.4,5.3,3.2,8,5.3c3.9,3.1,8,6.7,12.2,10.8
		c4,3.9,8.4,8.6,13.3,14l0.1-6.2c0-1.5,0-4.4-0.1-8.7c-0.1-4.3-0.2-7.3-0.2-9c-0.1-1.7-0.2-3.8-0.5-6.2c1.8,0.1,4,0.3,6.7,0.5
		s6,0.5,9.9,0.8c-0.1,9.3-0.1,19.1-0.1,29.2C958,179.8,958.1,190.2,958.2,198.7z"/>
	<path class="st6" d="M958.2,117.1c-1.8-0.1-4.1-0.3-7-0.4c-2.9-0.1-5.9-0.2-8.9-0.4c-3.2-3.9-6.3-7.5-9.3-10.7
		c-4.9-5.3-9.4-9.9-13.7-14c-3.4-3.2-6.5-6-9.4-8.2c-1.7-1.3-3.1-2.1-4.2-2.5c-0.8-0.3-1.6-0.4-2.4-0.4c-1.1,0-2,0.2-2.8,0.7
		c-0.8,0.5-1.5,1.2-2,2.3s-1,2.3-1.3,3.8c-0.3,1.5-0.5,3.2-0.5,5.1c0,2.6,0.2,5.4,0.7,8.3s1.3,6.8,2.6,11.9l-8-1.5
		c-1.6-0.3-4.7-0.8-9.3-1.5c-1.7-9.8-2.5-19.1-2.5-27.7c0-3.9,0.4-7.7,1.1-11.3s1.9-6.8,3.6-9.7c1.7-2.8,3.7-5,6-6.4
		c2.3-1.4,4.7-2.1,7.3-2.1c1.7,0,3.4,0.2,5.1,0.6c1.6,0.4,3.5,1.2,5.7,2.3c2.7,1.4,5.3,3.2,8,5.3c3.9,3.1,8,6.7,12.2,10.8
		c4,3.9,8.4,8.6,13.3,14l0.1-6.2c0-1.5,0-4.3-0.1-8.7c-0.1-4.3-0.2-7.3-0.2-9c-0.1-1.7-0.2-3.8-0.5-6.2c1.8,0.1,4,0.3,6.7,0.5
		s6,0.5,9.9,0.8c-0.1,9.3-0.1,19.1-0.1,29.2C958,98.2,958.1,108.6,958.2,117.1z"/>
</g>
<g>
	<path class="st7" d="M114.8,323.4L123,310c0.7-1.2,3.2-5.5,7.6-13l6.4,0.1c0.6,0,2.8,0,6.4-0.1l-2.5,7.7c-0.7,1.9-1.5,4.6-2.6,7.9
		l-3.4,10.8l-9.2-0.1C124.9,323.3,121.2,323.3,114.8,323.4z"/>
	<path class="st7" d="M155.3,389.5c0.2-2.1,0.3-4.9,0.4-8.4s0.3-7.1,0.4-10.7c4.7-3.8,9-7.6,12.9-11.2c6.4-5.9,12-11.4,16.9-16.5
		c3.9-4.1,7.2-7.9,9.9-11.3c1.5-2,2.6-3.7,3.1-5.1c0.4-1,0.5-1.9,0.5-2.9c0-1.3-0.3-2.5-0.9-3.4c-0.6-1-1.5-1.8-2.8-2.5
		c-1.3-0.7-2.8-1.2-4.6-1.6s-3.9-0.6-6.2-0.6c-3.2,0-6.5,0.3-10,0.8s-8.3,1.6-14.3,3.1l1.8-9.7c0.4-1.9,1-5.7,1.8-11.2
		c11.9-2,23-3,33.4-3c4.7,0,9.3,0.4,13.6,1.3c4.3,0.9,8.2,2.3,11.6,4.4s6,4.5,7.7,7.2c1.7,2.7,2.6,5.7,2.6,8.8
		c0,2.1-0.2,4.1-0.8,6.2c-0.5,1.9-1.4,4.2-2.8,6.8c-1.7,3.2-3.8,6.5-6.4,9.6c-3.8,4.7-8.1,9.6-13,14.7c-4.7,4.8-10.3,10.2-16.9,16.1
		l7.4,0.1c1.8,0,5.2,0,10.5-0.1c5.2-0.1,8.8-0.2,10.9-0.3s4.5-0.3,7.5-0.6c-0.1,2.2-0.4,4.9-0.6,8.1s-0.6,7.2-0.9,11.9
		c-11.2-0.1-23-0.1-35.3-0.1C178,389.3,165.5,389.4,155.3,389.5z"/>
	<path class="st7" d="M253.8,389.5c0.2-2.1,0.3-4.9,0.4-8.4s0.3-7.1,0.4-10.7c4.7-3.8,9-7.6,12.9-11.2c6.4-5.9,12-11.4,16.9-16.5
		c3.9-4.1,7.2-7.9,9.9-11.3c1.5-2,2.5-3.7,3-5.1c0.4-1,0.5-1.9,0.5-2.9c0-1.3-0.3-2.5-0.9-3.4s-1.5-1.8-2.8-2.5
		c-1.3-0.7-2.8-1.2-4.6-1.6s-3.9-0.6-6.2-0.6c-3.2,0-6.5,0.3-10,0.8s-8.3,1.6-14.3,3.1l1.8-9.7c0.4-1.9,1-5.7,1.8-11.2
		c11.9-2,23-3,33.4-3c4.7,0,9.3,0.4,13.6,1.3c4.3,0.9,8.2,2.3,11.6,4.4s6,4.5,7.7,7.2c1.7,2.7,2.6,5.7,2.6,8.8
		c0,2.1-0.2,4.1-0.8,6.2c-0.5,1.9-1.4,4.2-2.8,6.8c-1.7,3.2-3.8,6.5-6.4,9.6c-3.8,4.7-8.1,9.6-13,14.7c-4.7,4.8-10.3,10.2-16.9,16.1
		l7.5,0.1c1.8,0,5.2,0,10.5-0.1c5.2-0.1,8.8-0.2,10.9-0.3s4.5-0.3,7.5-0.6c-0.1,2.2-0.4,4.9-0.6,8.1s-0.6,7.2-0.9,11.9
		c-11.2-0.1-23-0.1-35.3-0.1C276.6,389.3,264.1,389.4,253.8,389.5z"/>
</g>
</svg>
