<?xml version="1.0" encoding="utf-8"?>
<!-- Generator: Adobe Illustrator 26.0.1, SVG Export Plug-In . SVG Version: 6.00 Build 0)  -->
<svg version="1.1" id="Layer_1" xmlns="http://www.w3.org/2000/svg" xmlns:xlink="http://www.w3.org/1999/xlink" x="0px" y="0px"
	 viewBox="0 0 350.8 39" style="enable-background:new 0 0 350.8 39;" xml:space="preserve">
<style type="text/css">
	.st0{fill:#FFFFFF;}
</style>
<g>
	<path class="st0" d="M0.6,37.4c-0.2-3.1-0.4-6.2-0.6-9.1c2.1,0.8,3.7,1.3,5,1.6s2.5,0.4,3.5,0.4c1.2,0,2.3-0.2,3.3-0.7
		c0.7-0.3,1.3-0.8,1.7-1.3c0.6-0.8,1-1.7,1.2-2.7c0.3-1.8,0.6-5,0.8-9.6s0.3-8.5,0.3-11.9V1c2.9,0,4.8,0.1,5.8,0.1
		c1.2,0,3.3,0,6.2-0.1L27,13.1c-0.2,3.6-0.3,7.4-0.4,11.4c-0.1,3.1-0.2,5.2-0.5,6.4c-0.2,1-0.5,1.9-0.9,2.6
		c-0.4,0.7-0.8,1.3-1.4,1.8c-0.7,0.6-1.5,1.2-2.4,1.7c-1.3,0.7-2.6,1.2-4.1,1.5C15.7,38.9,14,39,12.2,39C8.8,38.9,4.9,38.4,0.6,37.4
		z"/>
	<path class="st0" d="M31,0.9c2.8,0,4.8,0.1,6,0.1c1.5,0,3.4,0,5.8-0.1L42,12.5c-0.2,2.2-0.3,4.2-0.4,6.1s-0.1,3.2-0.1,4
		c0,1.4,0.1,2.5,0.3,3.5s0.6,1.7,1.1,2.4s1.3,1.1,2.2,1.5c0.9,0.3,1.9,0.5,2.9,0.5c0.9,0,1.7-0.1,2.5-0.4c0.6-0.2,1.1-0.5,1.6-0.8
		c0.4-0.3,0.8-0.7,1.1-1.1c0.4-0.5,0.7-1.2,1-2c0.3-0.7,0.5-1.7,0.7-2.9c0.2-1.2,0.4-3.9,0.7-8.1c0.2-3.6,0.4-6.9,0.6-9.9
		c0.1-2.9,0.2-4.4,0.3-4.4c2.8,0,4.9,0,6.5,0h5.5l-1.3,19.4c0,0.4,0,0.7,0,0.9c-0.1,3.8-0.3,6.5-0.7,8s-1,2.9-2,4.1s-2.2,2.2-4,3.1
		s-3.7,1.6-6,2S50,39,47.7,39c-2,0-4-0.2-5.9-0.4c-1.8-0.3-3.3-0.7-4.7-1.3s-2.6-1.2-3.7-2c-1-0.7-1.7-1.4-2.2-2.1
		c-0.5-0.7-0.9-1.6-1.2-2.6c-0.3-1.1-0.5-2.3-0.5-3.6c0-0.4,0-1.1,0-2s0.1-2.1,0.2-3.8l0.4-4.4c0.1-1.1,0.2-2.8,0.3-5.1L31,0.9z"/>
	<path class="st0" d="M91.4,16.5c2.5,0,4.9,0,7.1,0c3.9,0,6.9,0,9.1,0c-0.2,2.5-0.5,6-0.7,10.6s-0.4,8-0.4,10.4
		c-2.1,0.4-3.8,0.7-5.2,0.8s-3,0.3-5,0.5c-1.9,0.1-3.7,0.2-5.2,0.2c-2.5,0-4.9-0.2-7.3-0.6c-2.4-0.4-4.5-1-6.4-1.9s-3.5-2.1-4.7-3.6
		s-2.2-3.3-2.9-5.4s-1-4.3-1-6.5c0-3.7,0.9-7.1,2.8-10.3c1.8-3.2,4.5-5.7,7.9-7.5c3.4-1.9,7.9-2.8,13.4-2.8c4,0,8.4,0.5,13.3,1.4
		c0,2.7,0.1,5.6,0.4,8.9c-1.3-0.4-2.4-0.8-3.2-1c-0.8-0.2-1.8-0.4-2.8-0.6c-1.1-0.2-2.1-0.3-3.1-0.4s-1.8-0.1-2.6-0.1
		c-2,0-3.9,0.3-5.7,0.9s-3.3,1.5-4.6,2.6s-2.2,2.6-2.9,4.3c-0.6,1.7-1,3.4-1,5.2c0,1.9,0.4,3.5,1.1,5s1.9,2.6,3.5,3.3
		s3.3,1.2,5.3,1.2c1.6,0,3.4-0.2,5.3-0.7l0.3-5.9c-1.2,0-1.9-0.1-2.1-0.1h-2.9l0.2-3.4c0-0.4,0.1-0.9,0.1-1.6
		C91.4,18.6,91.4,17.7,91.4,16.5z"/>
	<path class="st0" d="M109.6,38.3c0.5-4.7,0.8-8.6,1-11.8c0.2-3.2,0.4-7.4,0.6-12.6s0.3-8.8,0.3-10.5V1c4.3,0,9.5,0.1,15.6,0.1
		c5.6,0,10.6,0,14.9-0.1l-0.1,0.9c0,0.2-0.1,1-0.1,2.4l-0.2,3c0,0.6-0.1,1.3-0.1,1.9C138,9.1,135,9,132.6,9c-2.6,0-4.4,0-5.3,0
		c-0.9,0-2.4,0-4.3,0.1l-0.3,6.3c2.1,0,4.7,0.1,7.5,0.1c1,0,3.7-0.1,8.1-0.2c-0.2,2.3-0.4,5.1-0.5,8.3c-3.1,0-5.6,0-7.3,0
		c-2.5,0-5.3,0.1-8.4,0.2l-0.3,6.6h3.1c0.9,0,2.9,0,5.8-0.1l5.7-0.1c0.8,0,2.2-0.1,4.2-0.2c-0.2,2.7-0.4,5.5-0.6,8.4
		c-4.4,0-9.3,0-14.6,0h-12L109.6,38.3z"/>
	<path class="st0" d="M143.1,38.3l0.6-5.7l1.1-19.5l0.3-7.9V0.9c2.8,0,5.3,0.1,7.5,0.1c1.6,0,3.7,0,6.6-0.1l11.7,21.2l1.6,3.1
		c0.2-3.1,0.4-7.4,0.6-12.9c0.2-5.5,0.3-9.4,0.3-11.5c2.2,0,4,0.1,5.4,0.1c0.6,0,2.4,0,5.4-0.1l-0.7,8.1l-1.2,22.6l-0.2,6.5
		c-2.4,0-4.6,0-6.6,0c-1.7,0-4.1,0-7.1,0c-0.9-1.8-1.6-3.1-2.1-3.9l-4.6-7.8c-1.5-2.5-2.9-5-4.2-7.3c-0.8-1.5-1.7-3.1-2.6-4.9
		l-0.6,13L154,38c-2.3,0-4,0-5.2,0C147.7,38.2,145.9,38.2,143.1,38.3z"/>
	<path class="st0" d="M185.6,38.3c0.4-4.2,0.7-7.5,0.8-10c0.2-3.7,0.4-8.5,0.7-14.4c0.2-4.5,0.2-7.8,0.2-9.7V1
		c2.1,0.1,4,0.1,5.5,0.1s3.4,0,5.9-0.1s4.8-0.2,6.9-0.2c2.4,0,4.6,0.1,6.4,0.4s3.6,0.9,5.1,1.8s2.9,2.1,4,3.6s1.9,3.2,2.5,5.2
		s0.9,4,0.9,6.1s-0.2,4-0.7,6s-1.1,3.6-1.8,5.2c-0.8,1.5-1.7,2.8-2.8,4c-1.1,1.1-2.2,2-3.6,2.8c-1,0.6-2,1-3,1.4
		c-1,0.3-2.4,0.6-4.2,0.8c-2,0.2-4.2,0.3-6.7,0.3l-11.1-0.1C189.6,38.2,188,38.2,185.6,38.3z M197.5,30c1,0.1,2.1,0.1,3.1,0.1
		c1.9,0,3.5-0.2,5-0.5s2.7-1,3.8-2.1s1.9-2.5,2.4-4.1c0.5-1.7,0.8-3.4,0.8-5.2c0-2.2-0.4-4-1.2-5.5s-1.8-2.5-3.1-3.1
		s-3.1-0.9-5.3-0.9c-1.3,0-2.9,0-4.6,0.2L197.5,30z"/>
	<path class="st0" d="M225.5,38.3c0.4-3.7,0.6-6.7,0.8-8.9c0.2-3.3,0.4-7.9,0.6-13.7c0.2-5.8,0.3-9.7,0.3-11.7V1
		c5.5,0,10.6,0.1,15.3,0.1c4.8,0,9.3,0,13.7-0.1c-0.3,4.2-0.4,6.9-0.4,8.2l-2.4-0.1h-1.9h-1.9h-5.4c-0.6,0-2.4,0-5.4,0l-0.2,6.4
		l4,0.1h4.4c1.3,0,3.2,0,5.9-0.1c-0.2,3.5-0.3,6.1-0.3,8.1c-2.9-0.1-5.1-0.1-6.5-0.1c-2.4,0-5,0-7.9,0.1l-0.3,9.8v3.7v1.2H232
		C231.5,38.2,229.3,38.2,225.5,38.3z"/>
	<path class="st0" d="M256.3,38.3c0.5-4.7,0.8-8.6,1-11.8s0.4-7.4,0.6-12.6s0.3-8.8,0.3-10.5V1c4.3,0,9.5,0.1,15.6,0.1
		c5.6,0,10.6,0,14.9-0.1v0.9c0,0.2-0.1,1-0.1,2.4l-0.2,3c0,0.6,0,1.3,0,1.9c-3.5-0.1-6.5-0.2-8.9-0.2c-2.6,0-4.4,0-5.3,0
		s-2.4,0-4.3,0.1l-0.3,6.3c2.1,0,4.7,0.1,7.5,0.1c1,0,3.7-0.1,8.1-0.2c-0.2,2.3-0.4,5.1-0.5,8.3c-3.1,0-5.6,0-7.3,0
		c-2.5,0-5.3,0.1-8.5,0.2l-0.3,6.6h3.1c0.9,0,2.9,0,5.8-0.1l5.7-0.1c0.8,0,2.2-0.1,4.2-0.2c-0.2,2.7-0.4,5.5-0.5,8.4
		c-4.5,0-9.3,0-14.6,0h-12L256.3,38.3z"/>
	<path class="st0" d="M289.4,37.7c-0.2-3.9-0.5-7-0.8-9.3c2,0.9,3.9,1.5,5.5,1.9s3,0.5,4.2,0.5c1.6,0,2.9-0.2,3.8-0.7
		s1.4-1.2,1.4-2.1c0-0.3,0-0.6-0.1-0.9c-0.1-0.3-0.3-0.6-0.5-1s-0.6-0.7-1.1-1.2l-5.1-4.5c-1.2-1-2-1.8-2.5-2.2
		c-1-0.9-1.7-1.8-2.3-2.6c-0.5-0.8-0.9-1.6-1.2-2.5s-0.4-1.7-0.4-2.6c0-1.1,0.2-2.2,0.6-3.3s1-2.1,1.8-3s1.8-1.7,3.1-2.4
		c1.3-0.7,2.7-1.1,4.2-1.4s3-0.4,4.6-0.4c3.1,0,6.4,0.4,10.1,1.1c0,1.3,0.1,2.4,0.2,3.5s0.2,2.9,0.5,5.5c-1.7-0.7-3.2-1.1-4.6-1.4
		s-2.6-0.4-3.6-0.4c-1.4,0-2.6,0.3-3.5,0.8s-1.4,1.2-1.4,2c0,0.4,0.1,0.7,0.2,1.1s0.4,0.8,0.8,1.2c0.4,0.5,0.9,1,1.6,1.5
		c0.7,0.6,1.7,1.4,3.1,2.5l2,1.6c0.6,0.5,1.2,1,1.9,1.7c0.7,0.7,1.3,1.3,1.8,2s0.9,1.3,1.1,1.8c0.3,0.5,0.5,1.1,0.6,1.7
		c0.1,0.6,0.2,1.2,0.2,1.8c0,1.6-0.4,3.2-1.2,4.7c-0.8,1.5-1.9,2.7-3.3,3.7s-3,1.6-4.7,2s-3.5,0.6-5.5,0.6
		C297.7,39,293.9,38.6,289.4,37.7z"/>
	<path class="st0" d="M325.6,38.3c0.9-8.9,1.5-18.6,1.6-29.3l-11.7,0.3l0.1-3c0.1-1.6,0.1-3.4,0.2-5.3c5.2,0,11.2,0.1,18.1,0.1h6.8
		h6.6h3.5l-0.2,2.7c-0.1,1.4-0.1,2.6-0.1,3.6c0,0.9,0,1.6,0,2.1c-3.9-0.2-7.1-0.3-9.6-0.3H339c-0.3,3.2-0.5,6.2-0.6,8.9
		c-0.2,3.9-0.4,7.7-0.5,11.4s-0.2,6.7-0.2,8.9c-3,0-4.9,0-5.8,0C331.1,38.2,329,38.2,325.6,38.3z"/>
</g>
</svg>
